<?xml version="1.0" encoding="UTF-8"?>
<svg xmlns="http://www.w3.org/2000/svg" viewBox="0 0 700 550" width="700" height="550">

  <defs>
    <!-- Grayscale Patterns -->
    <pattern id="gray-12" patternUnits="userSpaceOnUse" width="8" height="8">
      <rect width="8" height="8" fill="#FFF"/>
      <rect x="0" y="0" width="1" height="1" fill="#000"/>
    </pattern>

    <pattern id="gray-25" patternUnits="userSpaceOnUse" width="4" height="4">
      <rect width="4" height="4" fill="#FFF"/>
      <rect x="0" y="0" width="2" height="2" fill="#000"/>
      <rect x="2" y="2" width="2" height="2" fill="#000"/>
    </pattern>

    <pattern id="gray-37" patternUnits="userSpaceOnUse" width="8" height="8">
      <rect width="8" height="8" fill="#FFF"/>
      <rect x="0" y="0" width="1" height="1" fill="#000"/>
      <rect x="2" y="2" width="1" height="1" fill="#000"/>
      <rect x="4" y="4" width="1" height="1" fill="#000"/>
      <rect x="6" y="6" width="1" height="1" fill="#000"/>
      <rect x="1" y="1" width="1" height="1" fill="#000"/>
      <rect x="3" y="3" width="1" height="1" fill="#000"/>
      <rect x="5" y="5" width="1" height="1" fill="#000"/>
      <rect x="7" y="7" width="1" height="1" fill="#000"/>
    </pattern>

    <pattern id="gray-50" patternUnits="userSpaceOnUse" width="2" height="2">
      <rect width="2" height="2" fill="#FFF"/>
      <rect x="0" y="0" width="1" height="1" fill="#000"/>
      <rect x="1" y="1" width="1" height="1" fill="#000"/>
    </pattern>

    <pattern id="gray-62" patternUnits="userSpaceOnUse" width="8" height="8">
      <rect width="8" height="8" fill="#000"/>
      <rect x="1" y="0" width="1" height="1" fill="#FFF"/>
      <rect x="3" y="2" width="1" height="1" fill="#FFF"/>
      <rect x="5" y="4" width="1" height="1" fill="#FFF"/>
      <rect x="7" y="6" width="1" height="1" fill="#FFF"/>
      <rect x="0" y="1" width="1" height="1" fill="#FFF"/>
      <rect x="2" y="3" width="1" height="1" fill="#FFF"/>
      <rect x="4" y="5" width="1" height="1" fill="#FFF"/>
      <rect x="6" y="7" width="1" height="1" fill="#FFF"/>
    </pattern>

    <pattern id="gray-75" patternUnits="userSpaceOnUse" width="4" height="4">
      <rect width="4" height="4" fill="#000"/>
      <rect x="0" y="0" width="2" height="2" fill="#FFF"/>
      <rect x="2" y="2" width="2" height="2" fill="#FFF"/>
    </pattern>

    <!-- Texture Patterns -->
    <pattern id="brick" patternUnits="userSpaceOnUse" width="8" height="8">
      <rect width="8" height="8" fill="#FFF"/>
      <rect x="0" y="0" width="4" height="1" fill="#000"/>
      <rect x="4" y="1" width="1" height="3" fill="#000"/>
      <rect x="0" y="4" width="4" height="1" fill="#000"/>
      <rect x="0" y="5" width="1" height="3" fill="#000"/>
    </pattern>

    <pattern id="diagonal" patternUnits="userSpaceOnUse" width="8" height="8">
      <rect width="8" height="8" fill="#FFF"/>
      <rect x="0" y="0" width="1" height="1" fill="#000"/>
      <rect x="1" y="1" width="1" height="1" fill="#000"/>
      <rect x="2" y="2" width="1" height="1" fill="#000"/>
      <rect x="3" y="3" width="1" height="1" fill="#000"/>
      <rect x="4" y="4" width="1" height="1" fill="#000"/>
      <rect x="5" y="5" width="1" height="1" fill="#000"/>
      <rect x="6" y="6" width="1" height="1" fill="#000"/>
      <rect x="7" y="7" width="1" height="1" fill="#000"/>
    </pattern>

    <pattern id="cross-hatch" patternUnits="userSpaceOnUse" width="8" height="8">
      <rect width="8" height="8" fill="#FFF"/>
      <rect x="0" y="0" width="1" height="8" fill="#000"/>
      <rect x="0" y="0" width="8" height="1" fill="#000"/>
      <rect x="4" y="0" width="1" height="8" fill="#000"/>
      <rect x="0" y="4" width="8" height="1" fill="#000"/>
    </pattern>

    <pattern id="dots" patternUnits="userSpaceOnUse" width="4" height="4">
      <rect width="4" height="4" fill="#FFF"/>
      <rect x="0" y="0" width="1" height="1" fill="#000"/>
      <rect x="2" y="2" width="1" height="1" fill="#000"/>
    </pattern>

    <pattern id="horizontal" patternUnits="userSpaceOnUse" width="8" height="8">
      <rect width="8" height="8" fill="#FFF"/>
      <rect x="0" y="0" width="8" height="2" fill="#000"/>
      <rect x="0" y="4" width="8" height="2" fill="#000"/>
    </pattern>

    <pattern id="vertical" patternUnits="userSpaceOnUse" width="8" height="8">
      <rect width="8" height="8" fill="#FFF"/>
      <rect x="0" y="0" width="2" height="8" fill="#000"/>
      <rect x="4" y="0" width="2" height="8" fill="#000"/>
    </pattern>

    <pattern id="herringbone" patternUnits="userSpaceOnUse" width="8" height="8">
      <rect width="8" height="8" fill="#FFF"/>
      <rect x="0" y="0" width="1" height="1" fill="#000"/>
      <rect x="1" y="1" width="1" height="1" fill="#000"/>
      <rect x="2" y="2" width="1" height="1" fill="#000"/>
      <rect x="3" y="3" width="1" height="1" fill="#000"/>
      <rect x="7" y="0" width="1" height="1" fill="#000"/>
      <rect x="6" y="1" width="1" height="1" fill="#000"/>
      <rect x="5" y="2" width="1" height="1" fill="#000"/>
      <rect x="4" y="3" width="1" height="1" fill="#000"/>
      <rect x="0" y="7" width="1" height="1" fill="#000"/>
      <rect x="1" y="6" width="1" height="1" fill="#000"/>
      <rect x="2" y="5" width="1" height="1" fill="#000"/>
      <rect x="3" y="4" width="1" height="1" fill="#000"/>
      <rect x="7" y="7" width="1" height="1" fill="#000"/>
      <rect x="6" y="6" width="1" height="1" fill="#000"/>
      <rect x="5" y="5" width="1" height="1" fill="#000"/>
      <rect x="4" y="4" width="1" height="1" fill="#000"/>
    </pattern>
  </defs>

  
  <title>Water Boiling Requirements</title>
  <desc>Proper boiling times and techniques for water purification</desc>
  
  <text x="350" y="30" font-family="monospace" font-size="20" font-weight="bold" 
        text-anchor="middle" fill="#000">BOILING WATER SAFELY</text>
  <text x="350" y="50" font-family="monospace" font-size="11" 
        text-anchor="middle" fill="#666">Most reliable purification method</text>
  
  <!-- Elevation chart -->
  <rect x="50" y="80" width="600" height="280" fill="#FFF" stroke="#000" stroke-width="2"/>
  <text x="60" y="105" font-family="monospace" font-size="14" font-weight="bold" fill="#000">BOILING TIME BY ELEVATION:</text>
  
  <!-- Sea level -->
  <rect x="70" y="125" width="560" height="45" fill="#E6E6E6" stroke="#000" stroke-width="1"/>
  <text x="80" y="145" font-family="monospace" font-size="11" font-weight="bold" fill="#000">Sea Level to 6,500ft (2,000m)</text>
  <text x="90" y="162" font-family="monospace" font-size="10" fill="#000">Boiling time: 1 MINUTE rolling boil</text>
  
  <!-- High elevation -->
  <rect x="70" y="180" width="560" height="45" fill="#FFF" stroke="#000" stroke-width="1"/>
  <text x="80" y="200" font-family="monospace" font-size="11" font-weight="bold" fill="#000">Above 6,500ft (2,000m)</text>
  <text x="90" y="217" font-family="monospace" font-size="10" fill="#000">Boiling time: 3 MINUTES rolling boil</text>
  
  <!-- Very high elevation -->
  <rect x="70" y="235" width="560" height="45" fill="#E6E6E6" stroke="#000" stroke-width="1"/>
  <text x="80" y="255" font-family="monospace" font-size="11" font-weight="bold" fill="#000">Above 10,000ft (3,000m)</text>
  <text x="90" y="272" font-family="monospace" font-size="10" fill="#000">Boiling time: 5 MINUTES rolling boil recommended</text>
  
  <text x="60" y="305" font-family="monospace" font-size="10" font-weight="bold" fill="#000">Why elevation matters:</text>
  <text x="70" y="320" font-family="monospace" font-size="9" fill="#666">• Water boils at lower temperatures at high altitude</text>
  <text x="70" y="333" font-family="monospace" font-size="9" fill="#666">• 212°F (100°C) at sea level → 198°F (92°C) at 6,500ft</text>
  <text x="70" y="346" font-family="monospace" font-size="9" fill="#666">• Longer boiling compensates for lower temperature</text>
  
  <!-- Process -->
  <rect x="50" y="375" width="600" height="160" fill="#E6E6E6" stroke="#000" stroke-width="2"/>
  <text x="60" y="400" font-family="monospace" font-size="14" font-weight="bold" fill="#000">BOILING PROCEDURE:</text>
  
  <text x="70" y="420" font-family="monospace" font-size="10" fill="#000">1. Filter/settle water first if cloudy (dirt reduces effectiveness)</text>
  <text x="70" y="438" font-family="monospace" font-size="10" fill="#000">2. Bring to ROLLING BOIL (large bubbles breaking surface)</text>
  <text x="70" y="456" font-family="monospace" font-size="10" fill="#000">3. Maintain boil for required time based on elevation</text>
  <text x="70" y="474" font-family="monospace" font-size="10" fill="#000">4. Let cool naturally (don't add untreated water or ice)</text>
  <text x="70" y="492" font-family="monospace" font-size="10" fill="#000">5. Aerate by pouring between containers to improve taste</text>
  
  <rect x="60" y="505" width="580" height="20" fill="#FFF" stroke="#000" stroke-width="1"/>
  <text x="70" y="519" font-family="monospace" font-size="9" font-weight="bold" fill="#0A0">✓ Kills: Bacteria, viruses, parasites (Giardia, Cryptosporidium)</text>
  
</svg>