<?xml version="1.0" encoding="UTF-8"?>
<svg xmlns="http://www.w3.org/2000/svg" viewBox="0 0 800 700" width="800" height="700">

  <defs>
    <!-- Grayscale Patterns -->
    <pattern id="gray-12" patternUnits="userSpaceOnUse" width="8" height="8">
      <rect width="8" height="8" fill="#FFF"/>
      <rect x="0" y="0" width="1" height="1" fill="#000"/>
    </pattern>

    <pattern id="gray-25" patternUnits="userSpaceOnUse" width="4" height="4">
      <rect width="4" height="4" fill="#FFF"/>
      <rect x="0" y="0" width="2" height="2" fill="#000"/>
      <rect x="2" y="2" width="2" height="2" fill="#000"/>
    </pattern>

    <pattern id="gray-37" patternUnits="userSpaceOnUse" width="8" height="8">
      <rect width="8" height="8" fill="#FFF"/>
      <rect x="0" y="0" width="1" height="1" fill="#000"/>
      <rect x="2" y="2" width="1" height="1" fill="#000"/>
      <rect x="4" y="4" width="1" height="1" fill="#000"/>
      <rect x="6" y="6" width="1" height="1" fill="#000"/>
      <rect x="1" y="1" width="1" height="1" fill="#000"/>
      <rect x="3" y="3" width="1" height="1" fill="#000"/>
      <rect x="5" y="5" width="1" height="1" fill="#000"/>
      <rect x="7" y="7" width="1" height="1" fill="#000"/>
    </pattern>

    <pattern id="gray-50" patternUnits="userSpaceOnUse" width="2" height="2">
      <rect width="2" height="2" fill="#FFF"/>
      <rect x="0" y="0" width="1" height="1" fill="#000"/>
      <rect x="1" y="1" width="1" height="1" fill="#000"/>
    </pattern>

    <pattern id="gray-62" patternUnits="userSpaceOnUse" width="8" height="8">
      <rect width="8" height="8" fill="#000"/>
      <rect x="1" y="0" width="1" height="1" fill="#FFF"/>
      <rect x="3" y="2" width="1" height="1" fill="#FFF"/>
      <rect x="5" y="4" width="1" height="1" fill="#FFF"/>
      <rect x="7" y="6" width="1" height="1" fill="#FFF"/>
      <rect x="0" y="1" width="1" height="1" fill="#FFF"/>
      <rect x="2" y="3" width="1" height="1" fill="#FFF"/>
      <rect x="4" y="5" width="1" height="1" fill="#FFF"/>
      <rect x="6" y="7" width="1" height="1" fill="#FFF"/>
    </pattern>

    <pattern id="gray-75" patternUnits="userSpaceOnUse" width="4" height="4">
      <rect width="4" height="4" fill="#000"/>
      <rect x="0" y="0" width="2" height="2" fill="#FFF"/>
      <rect x="2" y="2" width="2" height="2" fill="#FFF"/>
    </pattern>

    <!-- Texture Patterns -->
    <pattern id="brick" patternUnits="userSpaceOnUse" width="8" height="8">
      <rect width="8" height="8" fill="#FFF"/>
      <rect x="0" y="0" width="4" height="1" fill="#000"/>
      <rect x="4" y="1" width="1" height="3" fill="#000"/>
      <rect x="0" y="4" width="4" height="1" fill="#000"/>
      <rect x="0" y="5" width="1" height="3" fill="#000"/>
    </pattern>

    <pattern id="diagonal" patternUnits="userSpaceOnUse" width="8" height="8">
      <rect width="8" height="8" fill="#FFF"/>
      <rect x="0" y="0" width="1" height="1" fill="#000"/>
      <rect x="1" y="1" width="1" height="1" fill="#000"/>
      <rect x="2" y="2" width="1" height="1" fill="#000"/>
      <rect x="3" y="3" width="1" height="1" fill="#000"/>
      <rect x="4" y="4" width="1" height="1" fill="#000"/>
      <rect x="5" y="5" width="1" height="1" fill="#000"/>
      <rect x="6" y="6" width="1" height="1" fill="#000"/>
      <rect x="7" y="7" width="1" height="1" fill="#000"/>
    </pattern>

    <pattern id="cross-hatch" patternUnits="userSpaceOnUse" width="8" height="8">
      <rect width="8" height="8" fill="#FFF"/>
      <rect x="0" y="0" width="1" height="8" fill="#000"/>
      <rect x="0" y="0" width="8" height="1" fill="#000"/>
      <rect x="4" y="0" width="1" height="8" fill="#000"/>
      <rect x="0" y="4" width="8" height="1" fill="#000"/>
    </pattern>

    <pattern id="dots" patternUnits="userSpaceOnUse" width="4" height="4">
      <rect width="4" height="4" fill="#FFF"/>
      <rect x="0" y="0" width="1" height="1" fill="#000"/>
      <rect x="2" y="2" width="1" height="1" fill="#000"/>
    </pattern>

    <pattern id="horizontal" patternUnits="userSpaceOnUse" width="8" height="8">
      <rect width="8" height="8" fill="#FFF"/>
      <rect x="0" y="0" width="8" height="2" fill="#000"/>
      <rect x="0" y="4" width="8" height="2" fill="#000"/>
    </pattern>

    <pattern id="vertical" patternUnits="userSpaceOnUse" width="8" height="8">
      <rect width="8" height="8" fill="#FFF"/>
      <rect x="0" y="0" width="2" height="8" fill="#000"/>
      <rect x="4" y="0" width="2" height="8" fill="#000"/>
    </pattern>

    <pattern id="herringbone" patternUnits="userSpaceOnUse" width="8" height="8">
      <rect width="8" height="8" fill="#FFF"/>
      <rect x="0" y="0" width="1" height="1" fill="#000"/>
      <rect x="1" y="1" width="1" height="1" fill="#000"/>
      <rect x="2" y="2" width="1" height="1" fill="#000"/>
      <rect x="3" y="3" width="1" height="1" fill="#000"/>
      <rect x="7" y="0" width="1" height="1" fill="#000"/>
      <rect x="6" y="1" width="1" height="1" fill="#000"/>
      <rect x="5" y="2" width="1" height="1" fill="#000"/>
      <rect x="4" y="3" width="1" height="1" fill="#000"/>
      <rect x="0" y="7" width="1" height="1" fill="#000"/>
      <rect x="1" y="6" width="1" height="1" fill="#000"/>
      <rect x="2" y="5" width="1" height="1" fill="#000"/>
      <rect x="3" y="4" width="1" height="1" fill="#000"/>
      <rect x="7" y="7" width="1" height="1" fill="#000"/>
      <rect x="6" y="6" width="1" height="1" fill="#000"/>
      <rect x="5" y="5" width="1" height="1" fill="#000"/>
      <rect x="4" y="4" width="1" height="1" fill="#000"/>
    </pattern>
  </defs>

  
  <title>Chemical Water Purification</title>
  <desc>Using chlorine, iodine, and bleach to purify water</desc>
  
  <text x="400" y="30" font-family="monospace" font-size="20" font-weight="bold" 
        text-anchor="middle" fill="#000">CHEMICAL PURIFICATION</text>
  <text x="400" y="50" font-family="monospace" font-size="11" 
        text-anchor="middle" fill="#666">Emergency water treatment when boiling isn't possible</text>
  
  <!-- Bleach -->
  <rect x="40" y="80" width="720" height="145" fill="#FFF" stroke="#000" stroke-width="2"/>
  <text x="50" y="105" font-family="monospace" font-size="14" font-weight="bold" fill="#000">HOUSEHOLD BLEACH (Sodium Hypochlorite)</text>
  
  <text x="60" y="125" font-family="monospace" font-size="10" fill="#000">Requirements: Unscented, 5.25-8.25% sodium hypochlorite</text>
  <text x="60" y="140" font-family="monospace" font-size="10" fill="#000">Dosage per 1 gallon (4 liters):</text>
  <text x="70" y="157" font-family="monospace" font-size="9" fill="#666">• Clear water: 8 drops (1/8 teaspoon)</text>
  <text x="70" y="170" font-family="monospace" font-size="9" fill="#666">• Cloudy water: 16 drops (1/4 teaspoon)</text>
  <text x="60" y="190" font-family="monospace" font-size="10" fill="#000">Process:</text>
  <text x="70" y="205" font-family="monospace" font-size="9" fill="#666">1. Filter/settle water first if cloudy</text>
  <text x="70" y="218" font-family="monospace" font-size="9" fill="#666">2. Add bleach and stir</text>
  <text x="70" y="231" font-family="monospace" font-size="9" fill="#666">3. Let stand 30 minutes (60 min if cloudy)</text>
  
  <!-- Iodine -->
  <rect x="40" y="240" width="720" height="145" fill="#E6E6E6" stroke="#000" stroke-width="2"/>
  <text x="50" y="265" font-family="monospace" font-size="14" font-weight="bold" fill="#000">IODINE TABLETS</text>
  
  <text x="60" y="285" font-family="monospace" font-size="10" fill="#000">Common brands: Potable Aqua, Coghlan's</text>
  <text x="60" y="300" font-family="monospace" font-size="10" fill="#000">Dosage per 1 liter:</text>
  <text x="70" y="317" font-family="monospace" font-size="9" fill="#666">• Clear water: 1-2 tablets</text>
  <text x="70" y="330" font-family="monospace" font-size="9" fill="#666">• Cloudy/cold water: 2 tablets</text>
  <text x="60" y="350" font-family="monospace" font-size="10" fill="#000">Wait time:</text>
  <text x="70" y="365" font-family="monospace" font-size="9" fill="#666">• 30 minutes at 68°F (20°C) or warmer</text>
  <text x="70" y="378" font-family="monospace" font-size="9" fill="#666">• 60 minutes if water is cold or cloudy</text>
  
  <!-- Comparison table -->
  <rect x="40" y="400" width="720" height="180" fill="#FFF" stroke="#000" stroke-width="2"/>
  <text x="50" y="425" font-family="monospace" font-size="14" font-weight="bold" fill="#000">EFFECTIVENESS COMPARISON:</text>
  
  <rect x="60" y="440" width="670" height="25" fill="#E6E6E6" stroke="#000" stroke-width="1"/>
  <text x="70" y="457" font-family="monospace" font-size="9" font-weight="bold" fill="#000">Method          Bacteria  Viruses  Giardia  Crypto   Taste      Cost</text>
  
  <rect x="60" y="465" width="670" height="20" fill="#FFF" stroke="#000" stroke-width="1"/>
  <text x="70" y="479" font-family="monospace" font-size="9" fill="#000">Bleach          ✓✓✓      ✓✓✓     ✓✓✓     ✗        None       $</text>
  
  <rect x="60" y="485" width="670" height="20" fill="#E6E6E6" stroke="#000" stroke-width="1"/>
  <text x="70" y="499" font-family="monospace" font-size="9" fill="#000">Iodine          ✓✓✓      ✓✓✓     ✓✓       ✗        Bad        $$</text>
  
  <rect x="60" y="505" width="670" height="20" fill="#FFF" stroke="#000" stroke-width="1"/>
  <text x="70" y="519" font-family="monospace" font-size="9" fill="#000">Chlorine tabs   ✓✓✓      ✓✓✓     ✓✓✓     ✗        Slight     $$</text>
  
  <rect x="60" y="525" width="670" height="20" fill="#E6E6E6" stroke="#000" stroke-width="1"/>
  <text x="70" y="539" font-family="monospace" font-size="9" fill="#000">Boiling         ✓✓✓      ✓✓✓     ✓✓✓     ✓✓✓      None       Free</text>
  
  <text x="70" y="560" font-family="monospace" font-size="8" fill="#666">✓✓✓ = Highly effective   ✓✓ = Effective   ✗ = Not effective</text>
  <text x="70" y="572" font-family="monospace" font-size="8" fill="#E00">Note: Cryptosporidium resistant to chemical treatment - use filtration or boiling</text>
  
  <!-- Warnings -->
  <rect x="40" y="595" width="720" height="85" fill="#FFCCCC" stroke="#000" stroke-width="2"/>
  <text x="50" y="615" font-family="monospace" font-size="11" font-weight="bold" fill="#E00">⚠ IMPORTANT WARNINGS:</text>
  <text x="60" y="632" font-family="monospace" font-size="9" fill="#000">• Pregnant women should avoid iodine (thyroid risks)</text>
  <text x="60" y="645" font-family="monospace" font-size="9" fill="#000">• Don't use iodine for more than 2-3 weeks continuously</text>
  <text x="60" y="658" font-family="monospace" font-size="9" fill="#000">• Never use scented bleach, "splash-less" bleach, or color-safe bleach</text>
  <text x="60" y="671" font-family="monospace" font-size="9" fill="#000">• Slight chlorine smell is normal; strong smell means too much added</text>
  
</svg>