<?xml version="1.0" encoding="UTF-8"?>
<svg xmlns="http://www.w3.org/2000/svg" viewBox="0 0 800 750" width="800" height="750">

  <defs>
    <!-- Grayscale Patterns -->
    <pattern id="gray-12" patternUnits="userSpaceOnUse" width="8" height="8">
      <rect width="8" height="8" fill="#FFF"/>
      <rect x="0" y="0" width="1" height="1" fill="#000"/>
    </pattern>

    <pattern id="gray-25" patternUnits="userSpaceOnUse" width="4" height="4">
      <rect width="4" height="4" fill="#FFF"/>
      <rect x="0" y="0" width="2" height="2" fill="#000"/>
      <rect x="2" y="2" width="2" height="2" fill="#000"/>
    </pattern>

    <pattern id="gray-37" patternUnits="userSpaceOnUse" width="8" height="8">
      <rect width="8" height="8" fill="#FFF"/>
      <rect x="0" y="0" width="1" height="1" fill="#000"/>
      <rect x="2" y="2" width="1" height="1" fill="#000"/>
      <rect x="4" y="4" width="1" height="1" fill="#000"/>
      <rect x="6" y="6" width="1" height="1" fill="#000"/>
      <rect x="1" y="1" width="1" height="1" fill="#000"/>
      <rect x="3" y="3" width="1" height="1" fill="#000"/>
      <rect x="5" y="5" width="1" height="1" fill="#000"/>
      <rect x="7" y="7" width="1" height="1" fill="#000"/>
    </pattern>

    <pattern id="gray-50" patternUnits="userSpaceOnUse" width="2" height="2">
      <rect width="2" height="2" fill="#FFF"/>
      <rect x="0" y="0" width="1" height="1" fill="#000"/>
      <rect x="1" y="1" width="1" height="1" fill="#000"/>
    </pattern>

    <pattern id="gray-62" patternUnits="userSpaceOnUse" width="8" height="8">
      <rect width="8" height="8" fill="#000"/>
      <rect x="1" y="0" width="1" height="1" fill="#FFF"/>
      <rect x="3" y="2" width="1" height="1" fill="#FFF"/>
      <rect x="5" y="4" width="1" height="1" fill="#FFF"/>
      <rect x="7" y="6" width="1" height="1" fill="#FFF"/>
      <rect x="0" y="1" width="1" height="1" fill="#FFF"/>
      <rect x="2" y="3" width="1" height="1" fill="#FFF"/>
      <rect x="4" y="5" width="1" height="1" fill="#FFF"/>
      <rect x="6" y="7" width="1" height="1" fill="#FFF"/>
    </pattern>

    <pattern id="gray-75" patternUnits="userSpaceOnUse" width="4" height="4">
      <rect width="4" height="4" fill="#000"/>
      <rect x="0" y="0" width="2" height="2" fill="#FFF"/>
      <rect x="2" y="2" width="2" height="2" fill="#FFF"/>
    </pattern>

    <!-- Texture Patterns -->
    <pattern id="brick" patternUnits="userSpaceOnUse" width="8" height="8">
      <rect width="8" height="8" fill="#FFF"/>
      <rect x="0" y="0" width="4" height="1" fill="#000"/>
      <rect x="4" y="1" width="1" height="3" fill="#000"/>
      <rect x="0" y="4" width="4" height="1" fill="#000"/>
      <rect x="0" y="5" width="1" height="3" fill="#000"/>
    </pattern>

    <pattern id="diagonal" patternUnits="userSpaceOnUse" width="8" height="8">
      <rect width="8" height="8" fill="#FFF"/>
      <rect x="0" y="0" width="1" height="1" fill="#000"/>
      <rect x="1" y="1" width="1" height="1" fill="#000"/>
      <rect x="2" y="2" width="1" height="1" fill="#000"/>
      <rect x="3" y="3" width="1" height="1" fill="#000"/>
      <rect x="4" y="4" width="1" height="1" fill="#000"/>
      <rect x="5" y="5" width="1" height="1" fill="#000"/>
      <rect x="6" y="6" width="1" height="1" fill="#000"/>
      <rect x="7" y="7" width="1" height="1" fill="#000"/>
    </pattern>

    <pattern id="cross-hatch" patternUnits="userSpaceOnUse" width="8" height="8">
      <rect width="8" height="8" fill="#FFF"/>
      <rect x="0" y="0" width="1" height="8" fill="#000"/>
      <rect x="0" y="0" width="8" height="1" fill="#000"/>
      <rect x="4" y="0" width="1" height="8" fill="#000"/>
      <rect x="0" y="4" width="8" height="1" fill="#000"/>
    </pattern>

    <pattern id="dots" patternUnits="userSpaceOnUse" width="4" height="4">
      <rect width="4" height="4" fill="#FFF"/>
      <rect x="0" y="0" width="1" height="1" fill="#000"/>
      <rect x="2" y="2" width="1" height="1" fill="#000"/>
    </pattern>

    <pattern id="horizontal" patternUnits="userSpaceOnUse" width="8" height="8">
      <rect width="8" height="8" fill="#FFF"/>
      <rect x="0" y="0" width="8" height="2" fill="#000"/>
      <rect x="0" y="4" width="8" height="2" fill="#000"/>
    </pattern>

    <pattern id="vertical" patternUnits="userSpaceOnUse" width="8" height="8">
      <rect width="8" height="8" fill="#FFF"/>
      <rect x="0" y="0" width="2" height="8" fill="#000"/>
      <rect x="4" y="0" width="2" height="8" fill="#000"/>
    </pattern>

    <pattern id="herringbone" patternUnits="userSpaceOnUse" width="8" height="8">
      <rect width="8" height="8" fill="#FFF"/>
      <rect x="0" y="0" width="1" height="1" fill="#000"/>
      <rect x="1" y="1" width="1" height="1" fill="#000"/>
      <rect x="2" y="2" width="1" height="1" fill="#000"/>
      <rect x="3" y="3" width="1" height="1" fill="#000"/>
      <rect x="7" y="0" width="1" height="1" fill="#000"/>
      <rect x="6" y="1" width="1" height="1" fill="#000"/>
      <rect x="5" y="2" width="1" height="1" fill="#000"/>
      <rect x="4" y="3" width="1" height="1" fill="#000"/>
      <rect x="0" y="7" width="1" height="1" fill="#000"/>
      <rect x="1" y="6" width="1" height="1" fill="#000"/>
      <rect x="2" y="5" width="1" height="1" fill="#000"/>
      <rect x="3" y="4" width="1" height="1" fill="#000"/>
      <rect x="7" y="7" width="1" height="1" fill="#000"/>
      <rect x="6" y="6" width="1" height="1" fill="#000"/>
      <rect x="5" y="5" width="1" height="1" fill="#000"/>
      <rect x="4" y="4" width="1" height="1" fill="#000"/>
    </pattern>
  </defs>

  
  <title>Water Collection Methods</title>
  <desc>Four primary wilderness water collection techniques</desc>
  
  <text x="400" y="30" font-family="monospace" font-size="20" font-weight="bold" 
        text-anchor="middle" fill="#000">WATER COLLECTION METHODS</text>
  <text x="400" y="50" font-family="monospace" font-size="11" 
        text-anchor="middle" fill="#666">Wilderness water sourcing techniques</text>
  
  <!-- Rain catchment -->
  <rect x="40" y="80" width="340" height="150" fill="#FFF" stroke="#000" stroke-width="2"/>
  <text x="50" y="105" font-family="monospace" font-size="14" font-weight="bold" fill="#000">RAIN CATCHMENT</text>
  
  <!-- Tarp diagram -->
  <polygon points="80,130 280,130 290,180 70,180" fill="url(#gray-25)" stroke="#000" stroke-width="2"/>
  <circle cx="180" cy="180" r="15" fill="#000"/>
  <line x1="180" y1="180" x2="180" y2="210" stroke="#000" stroke-width="2"/>
  <rect x="160" y="210" width="40" height="10" fill="url(#gray-75)" stroke="#000" stroke-width="1"/>
  
  <text x="50" y="145" font-family="monospace" font-size="9" fill="#666">• Cleanest natural source</text>
  <text x="50" y="158" font-family="monospace" font-size="9" fill="#666">• Tarp/plastic sheet angled</text>
  <text x="50" y="171" font-family="monospace" font-size="9" fill="#666">• Weight in center for runoff</text>
  <text x="50" y="184" font-family="monospace" font-size="9" fill="#666">• Gutters from metal/bamboo</text>
  <text x="50" y="197" font-family="monospace" font-size="9" font-weight="bold" fill="#000">Yield: High in wet climate</text>
  <text x="50" y="215" font-family="monospace" font-size="9" fill="#0A0">✓ Minimal purification needed</text>
  
  <!-- Dew collection -->
  <rect x="420" y="80" width="340" height="150" fill="#FFF" stroke="#000" stroke-width="2"/>
  <text x="430" y="105" font-family="monospace" font-size="14" font-weight="bold" fill="#000">DEW COLLECTION</text>
  
  <!-- Cloth/grass -->
  <rect x="520" y="130" width="100" height="40" fill="url(#horizontal)" stroke="#000" stroke-width="2"/>
  <path d="M 520 170 Q 570 185, 620 170" stroke="#00F" stroke-width="3" fill="none"/>
  <rect x="550" y="190" width="40" height="20" fill="url(#gray-75)" stroke="#000" stroke-width="1"/>
  
  <text x="430" y="145" font-family="monospace" font-size="9" fill="#666">• Early morning, clear nights</text>
  <text x="430" y="158" font-family="monospace" font-size="9" fill="#666">• Tie cloth around ankles</text>
  <text x="430" y="171" font-family="monospace" font-size="9" fill="#666">• Walk through grass</text>
  <text x="430" y="184" font-family="monospace" font-size="9" fill="#666">• Wring into container</text>
  <text x="430" y="197" font-family="monospace" font-size="9" font-weight="bold" fill="#000">Yield: 0.5-1L per hour</text>
  <text x="430" y="215" font-family="monospace" font-size="9" fill="#E90">⚠ Purify before drinking</text>
  
  <!-- Transpiration bag -->
  <rect x="40" y="250" width="340" height="150" fill="#FFF" stroke="#000" stroke-width="2"/>
  <text x="50" y="275" font-family="monospace" font-size="14" font-weight="bold" fill="#000">TRANSPIRATION BAG</text>
  
  <!-- Tree branch with bag -->
  <line x1="100" y1="290" x2="220" y2="320" stroke="#000" stroke-width="4"/>
  <ellipse cx="220" cy="340" rx="50" ry="30" fill="none" stroke="#000" stroke-width="2" stroke-dasharray="5,5"/>
  <circle cx="210" cy="360" r="8" fill="#00F"/>
  
  <text x="50" y="305" font-family="monospace" font-size="9" fill="#666">• Clear plastic bag on branch</text>
  <text x="50" y="318" font-family="monospace" font-size="9" fill="#666">• Seal with cord/tape</text>
  <text x="50" y="331" font-family="monospace" font-size="9" fill="#666">• Weight collects at low point</text>
  <text x="50" y="344" font-family="monospace" font-size="9" fill="#666">• 6-8 hours in sun</text>
  <text x="50" y="357" font-family="monospace" font-size="9" font-weight="bold" fill="#000">Yield: 50-200mL per bag</text>
  <text x="50" y="375" font-family="monospace" font-size="9" fill="#0A0">✓ Safe to drink (distilled)</text>
  <text x="50" y="388" font-family="monospace" font-size="9" fill="#666">Non-poisonous plants only!</text>
  
  <!-- Seepage well -->
  <rect x="420" y="250" width="340" height="150" fill="#FFF" stroke="#000" stroke-width="2"/>
  <text x="430" y="275" font-family="monospace" font-size="14" font-weight="bold" fill="#000">SEEPAGE WELL</text>
  
  <!-- Ground cross-section -->
  <rect x="500" y="290" width="200" height="80" fill="url(#gray-50)" stroke="#000" stroke-width="2"/>
  <circle cx="600" cy="330" r="30" fill="url(#dots)" stroke="#000" stroke-width="2"/>
  <path d="M 580 340 Q 600 355, 620 340" stroke="#00F" stroke-width="2" fill="none"/>
  
  <text x="430" y="305" font-family="monospace" font-size="9" fill="#666">• Dig near water source</text>
  <text x="430" y="318" font-family="monospace" font-size="9" fill="#666">• 3ft from stream/lake edge</text>
  <text x="430" y="331" font-family="monospace" font-size="9" fill="#666">• Water seeps and filters</text>
  <text x="430" y="344" font-family="monospace" font-size="9" fill="#666">• Line with rocks to prevent</text>
  <text x="440" y="357" font-family="monospace" font-size="9" fill="#666">  collapse</text>
  <text x="430" y="375" font-family="monospace" font-size="9" font-weight="bold" fill="#000">Yield: Variable, slow fill</text>
  <text x="430" y="388" font-family="monospace" font-size="9" fill="#E90">⚠ Still requires purification</text>
  
  <!-- Priority ranking -->
  <rect x="40" y="420" width="720" height="310" fill="#E6E6E6" stroke="#000" stroke-width="2"/>
  <text x="50" y="445" font-family="monospace" font-size="14" font-weight="bold" fill="#000">WATER SOURCE PRIORITY:</text>
  
  <text x="60" y="470" font-family="monospace" font-size="11" font-weight="bold" fill="#0A0">1. RAINWATER</text>
  <text x="70" y="485" font-family="monospace" font-size="9" fill="#000">Cleanest, minimal treatment needed (filter debris)</text>
  
  <text x="60" y="505" font-family="monospace" font-size="11" font-weight="bold" fill="#0A0">2. TRANSPIRATION</text>
  <text x="70" y="520" font-family="monospace" font-size="9" fill="#000">Distilled water, safe to drink, low yield</text>
  
  <text x="60" y="540" font-family="monospace" font-size="11" font-weight="bold" fill="#E90">3. RUNNING STREAMS</text>
  <text x="70" y="555" font-family="monospace" font-size="9" fill="#000">Clearer than stagnant, ALWAYS purify (parasites/bacteria)</text>
  
  <text x="60" y="575" font-family="monospace" font-size="11" font-weight="bold" fill="#E90">4. SPRINGS</text>
  <text x="70" y="590" font-family="monospace" font-size="9" fill="#000">Naturally filtered through rock, still purify</text>
  
  <text x="60" y="610" font-family="monospace" font-size="11" font-weight="bold" fill="#E00">5. STAGNANT WATER</text>
  <text x="70" y="625" font-family="monospace" font-size="9" fill="#000">Ponds/lakes - high contamination risk, requires thorough treatment</text>
  
  <text x="60" y="645" font-family="monospace" font-size="11" font-weight="bold" fill="#E00">6. DEW/SNOW MELT</text>
  <text x="70" y="660" font-family="monospace" font-size="9" fill="#000">Usable but requires purification, time-consuming</text>
  
  <rect x="50" y="675" width="700" height="45" fill="#FFF" stroke="#000" stroke-width="1"/>
  <text x="60" y="695" font-family="monospace" font-size="10" font-weight="bold" fill="#E00">⚠ GENERAL RULE:</text>
  <text x="60" y="710" font-family="monospace" font-size="9" fill="#000">If you didn't see it fall from the sky or distill it yourself,</text>
  <text x="60" y="723" font-family="monospace" font-size="9" fill="#000">PURIFY IT before drinking!</text>
  
</svg>