<?xml version="1.0" encoding="UTF-8"?>
<svg xmlns="http://www.w3.org/2000/svg" viewBox="0 0 750 650" width="750" height="650">

  <defs>
    <!-- Grayscale Patterns -->
    <pattern id="gray-12" patternUnits="userSpaceOnUse" width="8" height="8">
      <rect width="8" height="8" fill="#FFF"/>
      <rect x="0" y="0" width="1" height="1" fill="#000"/>
    </pattern>

    <pattern id="gray-25" patternUnits="userSpaceOnUse" width="4" height="4">
      <rect width="4" height="4" fill="#FFF"/>
      <rect x="0" y="0" width="2" height="2" fill="#000"/>
      <rect x="2" y="2" width="2" height="2" fill="#000"/>
    </pattern>

    <pattern id="gray-37" patternUnits="userSpaceOnUse" width="8" height="8">
      <rect width="8" height="8" fill="#FFF"/>
      <rect x="0" y="0" width="1" height="1" fill="#000"/>
      <rect x="2" y="2" width="1" height="1" fill="#000"/>
      <rect x="4" y="4" width="1" height="1" fill="#000"/>
      <rect x="6" y="6" width="1" height="1" fill="#000"/>
      <rect x="1" y="1" width="1" height="1" fill="#000"/>
      <rect x="3" y="3" width="1" height="1" fill="#000"/>
      <rect x="5" y="5" width="1" height="1" fill="#000"/>
      <rect x="7" y="7" width="1" height="1" fill="#000"/>
    </pattern>

    <pattern id="gray-50" patternUnits="userSpaceOnUse" width="2" height="2">
      <rect width="2" height="2" fill="#FFF"/>
      <rect x="0" y="0" width="1" height="1" fill="#000"/>
      <rect x="1" y="1" width="1" height="1" fill="#000"/>
    </pattern>

    <pattern id="gray-62" patternUnits="userSpaceOnUse" width="8" height="8">
      <rect width="8" height="8" fill="#000"/>
      <rect x="1" y="0" width="1" height="1" fill="#FFF"/>
      <rect x="3" y="2" width="1" height="1" fill="#FFF"/>
      <rect x="5" y="4" width="1" height="1" fill="#FFF"/>
      <rect x="7" y="6" width="1" height="1" fill="#FFF"/>
      <rect x="0" y="1" width="1" height="1" fill="#FFF"/>
      <rect x="2" y="3" width="1" height="1" fill="#FFF"/>
      <rect x="4" y="5" width="1" height="1" fill="#FFF"/>
      <rect x="6" y="7" width="1" height="1" fill="#FFF"/>
    </pattern>

    <pattern id="gray-75" patternUnits="userSpaceOnUse" width="4" height="4">
      <rect width="4" height="4" fill="#000"/>
      <rect x="0" y="0" width="2" height="2" fill="#FFF"/>
      <rect x="2" y="2" width="2" height="2" fill="#FFF"/>
    </pattern>

    <!-- Texture Patterns -->
    <pattern id="brick" patternUnits="userSpaceOnUse" width="8" height="8">
      <rect width="8" height="8" fill="#FFF"/>
      <rect x="0" y="0" width="4" height="1" fill="#000"/>
      <rect x="4" y="1" width="1" height="3" fill="#000"/>
      <rect x="0" y="4" width="4" height="1" fill="#000"/>
      <rect x="0" y="5" width="1" height="3" fill="#000"/>
    </pattern>

    <pattern id="diagonal" patternUnits="userSpaceOnUse" width="8" height="8">
      <rect width="8" height="8" fill="#FFF"/>
      <rect x="0" y="0" width="1" height="1" fill="#000"/>
      <rect x="1" y="1" width="1" height="1" fill="#000"/>
      <rect x="2" y="2" width="1" height="1" fill="#000"/>
      <rect x="3" y="3" width="1" height="1" fill="#000"/>
      <rect x="4" y="4" width="1" height="1" fill="#000"/>
      <rect x="5" y="5" width="1" height="1" fill="#000"/>
      <rect x="6" y="6" width="1" height="1" fill="#000"/>
      <rect x="7" y="7" width="1" height="1" fill="#000"/>
    </pattern>

    <pattern id="cross-hatch" patternUnits="userSpaceOnUse" width="8" height="8">
      <rect width="8" height="8" fill="#FFF"/>
      <rect x="0" y="0" width="1" height="8" fill="#000"/>
      <rect x="0" y="0" width="8" height="1" fill="#000"/>
      <rect x="4" y="0" width="1" height="8" fill="#000"/>
      <rect x="0" y="4" width="8" height="1" fill="#000"/>
    </pattern>

    <pattern id="dots" patternUnits="userSpaceOnUse" width="4" height="4">
      <rect width="4" height="4" fill="#FFF"/>
      <rect x="0" y="0" width="1" height="1" fill="#000"/>
      <rect x="2" y="2" width="1" height="1" fill="#000"/>
    </pattern>

    <pattern id="horizontal" patternUnits="userSpaceOnUse" width="8" height="8">
      <rect width="8" height="8" fill="#FFF"/>
      <rect x="0" y="0" width="8" height="2" fill="#000"/>
      <rect x="0" y="4" width="8" height="2" fill="#000"/>
    </pattern>

    <pattern id="vertical" patternUnits="userSpaceOnUse" width="8" height="8">
      <rect width="8" height="8" fill="#FFF"/>
      <rect x="0" y="0" width="2" height="8" fill="#000"/>
      <rect x="4" y="0" width="2" height="8" fill="#000"/>
    </pattern>

    <pattern id="herringbone" patternUnits="userSpaceOnUse" width="8" height="8">
      <rect width="8" height="8" fill="#FFF"/>
      <rect x="0" y="0" width="1" height="1" fill="#000"/>
      <rect x="1" y="1" width="1" height="1" fill="#000"/>
      <rect x="2" y="2" width="1" height="1" fill="#000"/>
      <rect x="3" y="3" width="1" height="1" fill="#000"/>
      <rect x="7" y="0" width="1" height="1" fill="#000"/>
      <rect x="6" y="1" width="1" height="1" fill="#000"/>
      <rect x="5" y="2" width="1" height="1" fill="#000"/>
      <rect x="4" y="3" width="1" height="1" fill="#000"/>
      <rect x="0" y="7" width="1" height="1" fill="#000"/>
      <rect x="1" y="6" width="1" height="1" fill="#000"/>
      <rect x="2" y="5" width="1" height="1" fill="#000"/>
      <rect x="3" y="4" width="1" height="1" fill="#000"/>
      <rect x="7" y="7" width="1" height="1" fill="#000"/>
      <rect x="6" y="6" width="1" height="1" fill="#000"/>
      <rect x="5" y="5" width="1" height="1" fill="#000"/>
      <rect x="4" y="4" width="1" height="1" fill="#000"/>
    </pattern>
  </defs>

  
  <title>Dehydration Warning Signs</title>
  <desc>Recognizing and responding to dehydration stages</desc>
  
  <text x="375" y="30" font-family="monospace" font-size="20" font-weight="bold" 
        text-anchor="middle" fill="#000">DEHYDRATION WARNING SIGNS</text>
  <text x="375" y="50" font-family="monospace" font-size="11" 
        text-anchor="middle" fill="#666">Recognize symptoms early and take action</text>
  
  <!-- Mild -->
  <rect x="50" y="80" width="650" height="110" fill="#FFFFCC" stroke="#000" stroke-width="2"/>
  <text x="60" y="105" font-family="monospace" font-size="14" font-weight="bold" fill="#000">MILD (1-5% fluid loss)</text>
  <text x="70" y="125" font-family="monospace" font-size="10" fill="#000">Symptoms:</text>
  <text x="80" y="140" font-family="monospace" font-size="9" fill="#666">• Thirst</text>
  <text x="80" y="153" font-family="monospace" font-size="9" fill="#666">• Dry lips and mouth</text>
  <text x="80" y="166" font-family="monospace" font-size="9" fill="#666">• Dark yellow urine</text>
  <text x="80" y="179" font-family="monospace" font-size="9" fill="#666">• Decreased urine output</text>
  <text x="350" y="125" font-family="monospace" font-size="10" font-weight="bold" fill="#0A0">Action:</text>
  <text x="360" y="140" font-family="monospace" font-size="9" fill="#000">Drink water immediately</text>
  <text x="360" y="153" font-family="monospace" font-size="9" fill="#000">Sip slowly, don't chug</text>
  <text x="360" y="166" font-family="monospace" font-size="9" fill="#000">Rest in shade if hot</text>
  
  <!-- Moderate -->
  <rect x="50" y="205" width="650" height="130" fill="#FFDDAA" stroke="#000" stroke-width="2"/>
  <text x="60" y="230" font-family="monospace" font-size="14" font-weight="bold" fill="#E90">MODERATE (6-10% fluid loss)</text>
  <text x="70" y="250" font-family="monospace" font-size="10" fill="#000">Symptoms:</text>
  <text x="80" y="265" font-family="monospace" font-size="9" fill="#666">• All mild symptoms PLUS:</text>
  <text x="80" y="278" font-family="monospace" font-size="9" fill="#666">• Headache</text>
  <text x="80" y="291" font-family="monospace" font-size="9" fill="#666">• Dizziness when standing</text>
  <text x="80" y="304" font-family="monospace" font-size="9" fill="#666">• Fatigue/weakness</text>
  <text x="80" y="317" font-family="monospace" font-size="9" fill="#666">• Rapid heartbeat</text>
  <text x="350" y="250" font-family="monospace" font-size="10" font-weight="bold" fill="#E90">Action:</text>
  <text x="360" y="265" font-family="monospace" font-size="9" fill="#000">Rehydrate urgently</text>
  <text x="360" y="278" font-family="monospace" font-size="9" fill="#000">Add electrolytes if available</text>
  <text x="360" y="291" font-family="monospace" font-size="9" fill="#000">Stop physical activity</text>
  <text x="360" y="304" font-family="monospace" font-size="9" fill="#000">Cool body temperature</text>
  <text x="360" y="317" font-family="monospace" font-size="9" fill="#000">Seek help if not improving</text>
  
  <!-- Severe -->
  <rect x="50" y="350" width="650" height="145" fill="#FFCCCC" stroke="#000" stroke-width="3"/>
  <text x="60" y="375" font-family="monospace" font-size="14" font-weight="bold" fill="#E00">SEVERE (>10% fluid loss) - EMERGENCY</text>
  <text x="70" y="395" font-family="monospace" font-size="10" fill="#000">Symptoms:</text>
  <text x="80" y="410" font-family="monospace" font-size="9" fill="#666">• All moderate symptoms PLUS:</text>
  <text x="80" y="423" font-family="monospace" font-size="9" fill="#666">• Little to no urination</text>
  <text x="80" y="436" font-family="monospace" font-size="9" fill="#666">• Sunken eyes</text>
  <text x="80" y="449" font-family="monospace" font-size="9" fill="#666">• Shriveled skin (doesn't bounce back)</text>
  <text x="80" y="462" font-family="monospace" font-size="9" fill="#666">• Confusion/delirium</text>
  <text x="80" y="475" font-family="monospace" font-size="9" fill="#666">• Unconsciousness</text>
  <text x="350" y="395" font-family="monospace" font-size="10" font-weight="bold" fill="#E00">Action:</text>
  <text x="360" y="410" font-family="monospace" font-size="9" fill="#E00">MEDICAL EMERGENCY</text>
  <text x="360" y="423" font-family="monospace" font-size="9" fill="#000">Call for rescue immediately</text>
  <text x="360" y="436" font-family="monospace" font-size="9" fill="#000">IV fluids likely required</text>
  <text x="360" y="449" font-family="monospace" font-size="9" fill="#000">If conscious: small sips only</text>
  <text x="360" y="462" font-family="monospace" font-size="9" fill="#000">Recovery position if unconscious</text>
  <text x="360" y="475" font-family="monospace" font-size="9" fill="#000">Can be fatal without treatment</text>
  
  <!-- Prevention -->
  <rect x="50" y="510" width="650" height="120" fill="#E6E6E6" stroke="#000" stroke-width="2"/>
  <text x="60" y="535" font-family="monospace" font-size="14" font-weight="bold" fill="#000">PREVENTION IS KEY:</text>
  
  <text x="70" y="555" font-family="monospace" font-size="10" fill="#000">Daily water needs:</text>
  <text x="80" y="570" font-family="monospace" font-size="9" fill="#666">• Minimum: 1/2 gallon (2L) in temperate climate, rest</text>
  <text x="80" y="583" font-family="monospace" font-size="9" fill="#666">• Recommended: 1 gallon (4L) with moderate activity</text>
  <text x="80" y="596" font-family="monospace" font-size="9" fill="#666">• Hot weather/heavy work: 2+ gallons (8L+)</text>
  <text x="80" y="609" font-family="monospace" font-size="9" fill="#000">Don't wait until thirsty - drink regularly throughout day</text>
  <text x="80" y="622" font-family="monospace" font-size="9" fill="#000">Urine should be pale yellow (not clear, not dark)</text>
  
</svg>