<?xml version="1.0" encoding="UTF-8"?>
<svg xmlns="http://www.w3.org/2000/svg" viewBox="0 0 800 650" width="800" height="650">

  <defs>
    <!-- Grayscale Patterns -->
    <pattern id="gray-12" patternUnits="userSpaceOnUse" width="8" height="8">
      <rect width="8" height="8" fill="#FFF"/>
      <rect x="0" y="0" width="1" height="1" fill="#000"/>
    </pattern>

    <pattern id="gray-25" patternUnits="userSpaceOnUse" width="4" height="4">
      <rect width="4" height="4" fill="#FFF"/>
      <rect x="0" y="0" width="2" height="2" fill="#000"/>
      <rect x="2" y="2" width="2" height="2" fill="#000"/>
    </pattern>

    <pattern id="gray-37" patternUnits="userSpaceOnUse" width="8" height="8">
      <rect width="8" height="8" fill="#FFF"/>
      <rect x="0" y="0" width="1" height="1" fill="#000"/>
      <rect x="2" y="2" width="1" height="1" fill="#000"/>
      <rect x="4" y="4" width="1" height="1" fill="#000"/>
      <rect x="6" y="6" width="1" height="1" fill="#000"/>
      <rect x="1" y="1" width="1" height="1" fill="#000"/>
      <rect x="3" y="3" width="1" height="1" fill="#000"/>
      <rect x="5" y="5" width="1" height="1" fill="#000"/>
      <rect x="7" y="7" width="1" height="1" fill="#000"/>
    </pattern>

    <pattern id="gray-50" patternUnits="userSpaceOnUse" width="2" height="2">
      <rect width="2" height="2" fill="#FFF"/>
      <rect x="0" y="0" width="1" height="1" fill="#000"/>
      <rect x="1" y="1" width="1" height="1" fill="#000"/>
    </pattern>

    <pattern id="gray-62" patternUnits="userSpaceOnUse" width="8" height="8">
      <rect width="8" height="8" fill="#000"/>
      <rect x="1" y="0" width="1" height="1" fill="#FFF"/>
      <rect x="3" y="2" width="1" height="1" fill="#FFF"/>
      <rect x="5" y="4" width="1" height="1" fill="#FFF"/>
      <rect x="7" y="6" width="1" height="1" fill="#FFF"/>
      <rect x="0" y="1" width="1" height="1" fill="#FFF"/>
      <rect x="2" y="3" width="1" height="1" fill="#FFF"/>
      <rect x="4" y="5" width="1" height="1" fill="#FFF"/>
      <rect x="6" y="7" width="1" height="1" fill="#FFF"/>
    </pattern>

    <pattern id="gray-75" patternUnits="userSpaceOnUse" width="4" height="4">
      <rect width="4" height="4" fill="#000"/>
      <rect x="0" y="0" width="2" height="2" fill="#FFF"/>
      <rect x="2" y="2" width="2" height="2" fill="#FFF"/>
    </pattern>

    <!-- Texture Patterns -->
    <pattern id="brick" patternUnits="userSpaceOnUse" width="8" height="8">
      <rect width="8" height="8" fill="#FFF"/>
      <rect x="0" y="0" width="4" height="1" fill="#000"/>
      <rect x="4" y="1" width="1" height="3" fill="#000"/>
      <rect x="0" y="4" width="4" height="1" fill="#000"/>
      <rect x="0" y="5" width="1" height="3" fill="#000"/>
    </pattern>

    <pattern id="diagonal" patternUnits="userSpaceOnUse" width="8" height="8">
      <rect width="8" height="8" fill="#FFF"/>
      <rect x="0" y="0" width="1" height="1" fill="#000"/>
      <rect x="1" y="1" width="1" height="1" fill="#000"/>
      <rect x="2" y="2" width="1" height="1" fill="#000"/>
      <rect x="3" y="3" width="1" height="1" fill="#000"/>
      <rect x="4" y="4" width="1" height="1" fill="#000"/>
      <rect x="5" y="5" width="1" height="1" fill="#000"/>
      <rect x="6" y="6" width="1" height="1" fill="#000"/>
      <rect x="7" y="7" width="1" height="1" fill="#000"/>
    </pattern>

    <pattern id="cross-hatch" patternUnits="userSpaceOnUse" width="8" height="8">
      <rect width="8" height="8" fill="#FFF"/>
      <rect x="0" y="0" width="1" height="8" fill="#000"/>
      <rect x="0" y="0" width="8" height="1" fill="#000"/>
      <rect x="4" y="0" width="1" height="8" fill="#000"/>
      <rect x="0" y="4" width="8" height="1" fill="#000"/>
    </pattern>

    <pattern id="dots" patternUnits="userSpaceOnUse" width="4" height="4">
      <rect width="4" height="4" fill="#FFF"/>
      <rect x="0" y="0" width="1" height="1" fill="#000"/>
      <rect x="2" y="2" width="1" height="1" fill="#000"/>
    </pattern>

    <pattern id="horizontal" patternUnits="userSpaceOnUse" width="8" height="8">
      <rect width="8" height="8" fill="#FFF"/>
      <rect x="0" y="0" width="8" height="2" fill="#000"/>
      <rect x="0" y="4" width="8" height="2" fill="#000"/>
    </pattern>

    <pattern id="vertical" patternUnits="userSpaceOnUse" width="8" height="8">
      <rect width="8" height="8" fill="#FFF"/>
      <rect x="0" y="0" width="2" height="8" fill="#000"/>
      <rect x="4" y="0" width="2" height="8" fill="#000"/>
    </pattern>

    <pattern id="herringbone" patternUnits="userSpaceOnUse" width="8" height="8">
      <rect width="8" height="8" fill="#FFF"/>
      <rect x="0" y="0" width="1" height="1" fill="#000"/>
      <rect x="1" y="1" width="1" height="1" fill="#000"/>
      <rect x="2" y="2" width="1" height="1" fill="#000"/>
      <rect x="3" y="3" width="1" height="1" fill="#000"/>
      <rect x="7" y="0" width="1" height="1" fill="#000"/>
      <rect x="6" y="1" width="1" height="1" fill="#000"/>
      <rect x="5" y="2" width="1" height="1" fill="#000"/>
      <rect x="4" y="3" width="1" height="1" fill="#000"/>
      <rect x="0" y="7" width="1" height="1" fill="#000"/>
      <rect x="1" y="6" width="1" height="1" fill="#000"/>
      <rect x="2" y="5" width="1" height="1" fill="#000"/>
      <rect x="3" y="4" width="1" height="1" fill="#000"/>
      <rect x="7" y="7" width="1" height="1" fill="#000"/>
      <rect x="6" y="6" width="1" height="1" fill="#000"/>
      <rect x="5" y="5" width="1" height="1" fill="#000"/>
      <rect x="4" y="4" width="1" height="1" fill="#000"/>
    </pattern>
  </defs>

  
  <title>Burn Classification - Rule of Nines</title>
  <desc>Assessing burn severity and body surface area percentage</desc>
  
  <text x="400" y="30" font-family="monospace" font-size="20" font-weight="bold" 
        text-anchor="middle" fill="#000">BURN ASSESSMENT</text>
  <text x="400" y="50" font-family="monospace" font-size="11" 
        text-anchor="middle" fill="#666">Rule of Nines + Burn Degree Classification</text>
  
  <!-- Body diagram with percentages -->
  <text x="60" y="90" font-family="monospace" font-size="14" font-weight="bold" fill="#000">RULE OF NINES:</text>
  
  <!-- Head -->
  <ellipse cx="150" cy="140" rx="35" ry="45" fill="url(#gray-25)" stroke="#000" stroke-width="2"/>
  <text x="150" y="145" font-family="monospace" font-size="12" font-weight="bold" 
        text-anchor="middle" fill="#000">9%</text>
  <text x="60" y="145" font-family="monospace" font-size="9" fill="#000">Head/Neck</text>
  
  <!-- Torso front -->
  <rect x="120" y="180" width="60" height="80" fill="url(#gray-37)" stroke="#000" stroke-width="2"/>
  <text x="150" y="225" font-family="monospace" font-size="12" font-weight="bold" 
        text-anchor="middle" fill="#000">18%</text>
  <text x="50" y="225" font-family="monospace" font-size="9" fill="#000">Chest/Abdomen</text>
  
  <!-- Arms -->
  <rect x="60" y="200" width="60" height="20" fill="url(#gray-25)" stroke="#000" stroke-width="2"/>
  <rect x="180" y="200" width="60" height="20" fill="url(#gray-25)" stroke="#000" stroke-width="2"/>
  <rect x="75" y="220" width="30" height="70" fill="url(#gray-25)" stroke="#000" stroke-width="2"/>
  <rect x="195" y="220" width="30" height="70" fill="url(#gray-25)" stroke="#000" stroke-width="2"/>
  <text x="90" y="255" font-family="monospace" font-size="10" font-weight="bold" 
        text-anchor="middle" fill="#000">9%</text>
  <text x="210" y="255" font-family="monospace" font-size="10" font-weight="bold" 
        text-anchor="middle" fill="#000">9%</text>
  
  <!-- Legs -->
  <rect x="130" y="260" width="18" height="100" fill="url(#gray-50)" stroke="#000" stroke-width="2"/>
  <rect x="152" y="260" width="18" height="100" fill="url(#gray-50)" stroke="#000" stroke-width="2"/>
  <text x="139" y="315" font-family="monospace" font-size="10" font-weight="bold" 
        text-anchor="middle" fill="#FFF">18%</text>
  <text x="161" y="315" font-family="monospace" font-size="10" font-weight="bold" 
        text-anchor="middle" fill="#FFF">18%</text>
  
  <!-- Groin -->
  <rect x="130" y="260" width="40" height="15" fill="url(#dots)" stroke="#000" stroke-width="2"/>
  <text x="150" y="270" font-family="monospace" font-size="8" font-weight="bold" 
        text-anchor="middle" fill="#000">1%</text>
  
  <!-- Burn degrees -->
  <rect x="320" y="80" width="460" height="550" fill="#FFF" stroke="#000" stroke-width="2"/>
  <text x="330" y="105" font-family="monospace" font-size="14" font-weight="bold" fill="#000">BURN SEVERITY:</text>
  
  <!-- 1st degree -->
  <rect x="335" y="120" width="430" height="80" fill="#FFEEEE" stroke="#000" stroke-width="1"/>
  <text x="345" y="140" font-family="monospace" font-size="12" font-weight="bold" fill="#000">1st DEGREE (Superficial)</text>
  <text x="355" y="158" font-family="monospace" font-size="9" fill="#000">• Red, painful, no blisters</text>
  <text x="355" y="171" font-family="monospace" font-size="9" fill="#000">• Affects epidermis only</text>
  <text x="355" y="184" font-family="monospace" font-size="9" fill="#000">• Example: Sunburn</text>
  <text x="355" y="197" font-family="monospace" font-size="9" fill="#666">Treatment: Cool water, aloe, pain relief</text>
  
  <!-- 2nd degree -->
  <rect x="335" y="210" width="430" height="95" fill="#FFDDDD" stroke="#000" stroke-width="1"/>
  <text x="345" y="230" font-family="monospace" font-size="12" font-weight="bold" fill="#000">2nd DEGREE (Partial Thickness)</text>
  <text x="355" y="248" font-family="monospace" font-size="9" fill="#000">• Red, blistered, very painful</text>
  <text x="355" y="261" font-family="monospace" font-size="9" fill="#000">• Affects epidermis + dermis</text>
  <text x="355" y="274" font-family="monospace" font-size="9" fill="#000">• Moist, weeping surface</text>
  <text x="355" y="287" font-family="monospace" font-size="9" fill="#666">Treatment: Cool water, sterile dressing, medical care if large</text>
  <text x="355" y="300" font-family="monospace" font-size="9" fill="#E00">⚠ DO NOT pop blisters!</text>
  
  <!-- 3rd degree -->
  <rect x="335" y="315" width="430" height="110" fill="#FFCCCC" stroke="#000" stroke-width="1"/>
  <text x="345" y="335" font-family="monospace" font-size="12" font-weight="bold" fill="#000">3rd DEGREE (Full Thickness)</text>
  <text x="355" y="353" font-family="monospace" font-size="9" fill="#000">• White/charred/leathery appearance</text>
  <text x="355" y="366" font-family="monospace" font-size="9" fill="#000">• Little to no pain (nerves destroyed)</text>
  <text x="355" y="379" font-family="monospace" font-size="9" fill="#000">• Destroys all skin layers</text>
  <text x="355" y="392" font-family="monospace" font-size="9" fill="#E00">⚠ ALWAYS requires medical treatment</text>
  <text x="355" y="405" font-family="monospace" font-size="9" fill="#666">Treatment: Cover with sterile dressing, treat shock</text>
  <text x="355" y="418" font-family="monospace" font-size="9" fill="#666">DO NOT apply creams/ointments to severe burns</text>
  
  <!-- Critical thresholds -->
  <rect x="335" y="435" width="430" height="85" fill="#E6E6E6" stroke="#000" stroke-width="2"/>
  <text x="345" y="455" font-family="monospace" font-size="11" font-weight="bold" fill="#E00">⚠ SEEK IMMEDIATE MEDICAL HELP IF:</text>
  <text x="355" y="473" font-family="monospace" font-size="9" fill="#000">• Any 3rd degree burn</text>
  <text x="355" y="486" font-family="monospace" font-size="9" fill="#000">• 2nd degree burn larger than 3 inches (7.5cm)</text>
  <text x="355" y="499" font-family="monospace" font-size="9" fill="#000">• Burns on face, hands, feet, genitals, or major joints</text>
  <text x="355" y="512" font-family="monospace" font-size="9" fill="#000">• Chemical or electrical burns</text>
  
  <!-- Quick reference -->
  <rect x="335" y="530" width="430" height="90" fill="#FFF" stroke="#000" stroke-width="1"/>
  <text x="345" y="550" font-family="monospace" font-size="10" font-weight="bold" fill="#000">EMERGENCY BURN CARE:</text>
  <text x="355" y="568" font-family="monospace" font-size="9" fill="#000">1. Stop the burning (remove from source, smother flames)</text>
  <text x="355" y="581" font-family="monospace" font-size="9" fill="#000">2. Cool burn with clean water 10-20 min (NOT ice)</text>
  <text x="355" y="594" font-family="monospace" font-size="9" fill="#000">3. Remove jewelry/tight clothing before swelling</text>
  <text x="355" y="607" font-family="monospace" font-size="9" fill="#000">4. Cover with sterile non-stick dressing</text>
  
</svg>