<?xml version="1.0" encoding="UTF-8"?>
<svg xmlns="http://www.w3.org/2000/svg" viewBox="0 0 800 750" width="800" height="750">

  <defs>
    <!-- Grayscale Patterns -->
    <pattern id="gray-12" patternUnits="userSpaceOnUse" width="8" height="8">
      <rect width="8" height="8" fill="#FFF"/>
      <rect x="0" y="0" width="1" height="1" fill="#000"/>
    </pattern>

    <pattern id="gray-25" patternUnits="userSpaceOnUse" width="4" height="4">
      <rect width="4" height="4" fill="#FFF"/>
      <rect x="0" y="0" width="2" height="2" fill="#000"/>
      <rect x="2" y="2" width="2" height="2" fill="#000"/>
    </pattern>

    <pattern id="gray-37" patternUnits="userSpaceOnUse" width="8" height="8">
      <rect width="8" height="8" fill="#FFF"/>
      <rect x="0" y="0" width="1" height="1" fill="#000"/>
      <rect x="2" y="2" width="1" height="1" fill="#000"/>
      <rect x="4" y="4" width="1" height="1" fill="#000"/>
      <rect x="6" y="6" width="1" height="1" fill="#000"/>
      <rect x="1" y="1" width="1" height="1" fill="#000"/>
      <rect x="3" y="3" width="1" height="1" fill="#000"/>
      <rect x="5" y="5" width="1" height="1" fill="#000"/>
      <rect x="7" y="7" width="1" height="1" fill="#000"/>
    </pattern>

    <pattern id="gray-50" patternUnits="userSpaceOnUse" width="2" height="2">
      <rect width="2" height="2" fill="#FFF"/>
      <rect x="0" y="0" width="1" height="1" fill="#000"/>
      <rect x="1" y="1" width="1" height="1" fill="#000"/>
    </pattern>

    <pattern id="gray-62" patternUnits="userSpaceOnUse" width="8" height="8">
      <rect width="8" height="8" fill="#000"/>
      <rect x="1" y="0" width="1" height="1" fill="#FFF"/>
      <rect x="3" y="2" width="1" height="1" fill="#FFF"/>
      <rect x="5" y="4" width="1" height="1" fill="#FFF"/>
      <rect x="7" y="6" width="1" height="1" fill="#FFF"/>
      <rect x="0" y="1" width="1" height="1" fill="#FFF"/>
      <rect x="2" y="3" width="1" height="1" fill="#FFF"/>
      <rect x="4" y="5" width="1" height="1" fill="#FFF"/>
      <rect x="6" y="7" width="1" height="1" fill="#FFF"/>
    </pattern>

    <pattern id="gray-75" patternUnits="userSpaceOnUse" width="4" height="4">
      <rect width="4" height="4" fill="#000"/>
      <rect x="0" y="0" width="2" height="2" fill="#FFF"/>
      <rect x="2" y="2" width="2" height="2" fill="#FFF"/>
    </pattern>

    <!-- Texture Patterns -->
    <pattern id="brick" patternUnits="userSpaceOnUse" width="8" height="8">
      <rect width="8" height="8" fill="#FFF"/>
      <rect x="0" y="0" width="4" height="1" fill="#000"/>
      <rect x="4" y="1" width="1" height="3" fill="#000"/>
      <rect x="0" y="4" width="4" height="1" fill="#000"/>
      <rect x="0" y="5" width="1" height="3" fill="#000"/>
    </pattern>

    <pattern id="diagonal" patternUnits="userSpaceOnUse" width="8" height="8">
      <rect width="8" height="8" fill="#FFF"/>
      <rect x="0" y="0" width="1" height="1" fill="#000"/>
      <rect x="1" y="1" width="1" height="1" fill="#000"/>
      <rect x="2" y="2" width="1" height="1" fill="#000"/>
      <rect x="3" y="3" width="1" height="1" fill="#000"/>
      <rect x="4" y="4" width="1" height="1" fill="#000"/>
      <rect x="5" y="5" width="1" height="1" fill="#000"/>
      <rect x="6" y="6" width="1" height="1" fill="#000"/>
      <rect x="7" y="7" width="1" height="1" fill="#000"/>
    </pattern>

    <pattern id="cross-hatch" patternUnits="userSpaceOnUse" width="8" height="8">
      <rect width="8" height="8" fill="#FFF"/>
      <rect x="0" y="0" width="1" height="8" fill="#000"/>
      <rect x="0" y="0" width="8" height="1" fill="#000"/>
      <rect x="4" y="0" width="1" height="8" fill="#000"/>
      <rect x="0" y="4" width="8" height="1" fill="#000"/>
    </pattern>

    <pattern id="dots" patternUnits="userSpaceOnUse" width="4" height="4">
      <rect width="4" height="4" fill="#FFF"/>
      <rect x="0" y="0" width="1" height="1" fill="#000"/>
      <rect x="2" y="2" width="1" height="1" fill="#000"/>
    </pattern>

    <pattern id="horizontal" patternUnits="userSpaceOnUse" width="8" height="8">
      <rect width="8" height="8" fill="#FFF"/>
      <rect x="0" y="0" width="8" height="2" fill="#000"/>
      <rect x="0" y="4" width="8" height="2" fill="#000"/>
    </pattern>

    <pattern id="vertical" patternUnits="userSpaceOnUse" width="8" height="8">
      <rect width="8" height="8" fill="#FFF"/>
      <rect x="0" y="0" width="2" height="8" fill="#000"/>
      <rect x="4" y="0" width="2" height="8" fill="#000"/>
    </pattern>

    <pattern id="herringbone" patternUnits="userSpaceOnUse" width="8" height="8">
      <rect width="8" height="8" fill="#FFF"/>
      <rect x="0" y="0" width="1" height="1" fill="#000"/>
      <rect x="1" y="1" width="1" height="1" fill="#000"/>
      <rect x="2" y="2" width="1" height="1" fill="#000"/>
      <rect x="3" y="3" width="1" height="1" fill="#000"/>
      <rect x="7" y="0" width="1" height="1" fill="#000"/>
      <rect x="6" y="1" width="1" height="1" fill="#000"/>
      <rect x="5" y="2" width="1" height="1" fill="#000"/>
      <rect x="4" y="3" width="1" height="1" fill="#000"/>
      <rect x="0" y="7" width="1" height="1" fill="#000"/>
      <rect x="1" y="6" width="1" height="1" fill="#000"/>
      <rect x="2" y="5" width="1" height="1" fill="#000"/>
      <rect x="3" y="4" width="1" height="1" fill="#000"/>
      <rect x="7" y="7" width="1" height="1" fill="#000"/>
      <rect x="6" y="6" width="1" height="1" fill="#000"/>
      <rect x="5" y="5" width="1" height="1" fill="#000"/>
      <rect x="4" y="4" width="1" height="1" fill="#000"/>
    </pattern>
  </defs>

  
  <title>Improvised Tools</title>
  <desc>Making functional tools from natural materials</desc>
  
  <text x="400" y="30" font-family="monospace" font-size="20" font-weight="bold" 
        text-anchor="middle" fill="#000">IMPROVISED TOOLS</text>
  <text x="400" y="50" font-family="monospace" font-size="11" 
        text-anchor="middle" fill="#666">Functional tools from natural materials</text>
  
  <!-- Stone hammer -->
  <rect x="40" y="80" width="350" height="150" fill="#FFF" stroke="#000" stroke-width="2"/>
  <text x="50" y="105" font-family="monospace" font-size="14" font-weight="bold" fill="#000">STONE HAMMER:</text>
  
  <!-- Diagram -->
  <circle cx="150" cy="160" r="25" fill="url(#gray-50)" stroke="#000" stroke-width="2"/>
  <rect x="135" y="185" width="30" height="60" fill="url(#horizontal)" stroke="#000" stroke-width="2"/>
  <path d="M 120 170 Q 150 185, 180 170" stroke="#000" stroke-width="2" fill="none"/>
  <text x="190" y="165" font-family="monospace" font-size="8" fill="#000">Cordage wrap</text>
  
  <text x="220" y="125" font-family="monospace" font-size="9" fill="#000">• River stone (smooth, hard)</text>
  <text x="220" y="138" font-family="monospace" font-size="9" fill="#000">• Split sapling handle</text>
  <text x="220" y="151" font-family="monospace" font-size="9" fill="#000">• Wedge stone into split</text>
  <text x="220" y="164" font-family="monospace" font-size="9" fill="#000">• Wrap tightly with cord</text>
  <text x="220" y="177" font-family="monospace" font-size="9" fill="#000">• Or: natural Y-branch trap</text>
  
  <rect x="50" y="205" width="330" height="15" fill="#E6E6E6" stroke="#000" stroke-width="1"/>
  <text x="60" y="217" font-family="monospace" font-size="8" font-weight="bold" fill="#000">Uses: Driving stakes, cracking nuts, shaping wood</text>
  
  <!-- Stone knife -->
  <rect x="410" y="80" width="350" height="150" fill="#FFF" stroke="#000" stroke-width="2"/>
  <text x="420" y="105" font-family="monospace" font-size="14" font-weight="bold" fill="#000">STONE KNIFE/SCRAPER:</text>
  
  <!-- Flake -->
  <path d="M 480 140 L 550 135 L 555 165 L 485 170 Z" fill="url(#gray-37)" stroke="#000" stroke-width="2"/>
  <line x1="550" y1="135" x2="555" y2="165" stroke="#E00" stroke-width="2"/>
  <text x="565" y="155" font-family="monospace" font-size="8" fill="#E00">Sharp edge</text>
  
  <text x="590" y="125" font-family="monospace" font-size="9" fill="#000">• Flint, obsidian, quartz</text>
  <text x="590" y="138" font-family="monospace" font-size="9" fill="#000">• Strike at angle to flake</text>
  <text x="590" y="151" font-family="monospace" font-size="9" fill="#000">• Wrap base in leather/bark</text>
  <text x="590" y="164" font-family="monospace" font-size="9" fill="#000">• Sharp but fragile</text>
  
  <rect x="420" y="205" width="330" height="15" fill="#E6E6E6" stroke="#000" stroke-width="1"/>
  <text x="430" y="217" font-family="monospace" font-size="8" font-weight="bold" fill="#000">Uses: Cutting, scraping hides, processing plants</text>
  
  <!-- Digging stick -->
  <rect x="40" y="245" width="350" height="150" fill="#FFF" stroke="#000" stroke-width="2"/>
  <text x="50" y="270" font-family="monospace" font-size="14" font-weight="bold" fill="#000">DIGGING STICK:</text>
  
  <!-- Stick -->
  <rect x="120" y="295" width="15" height="80" fill="url(#horizontal)" stroke="#000" stroke-width="2"/>
  <path d="M 127 375 L 120 390 L 135 390 Z" fill="url(#gray-50)" stroke="#000" stroke-width="2"/>
  
  <text x="180" y="310" font-family="monospace" font-size="9" fill="#000">• Hardwood branch (oak, hickory)</text>
  <text x="180" y="323" font-family="monospace" font-size="9" fill="#000">• 3-4 feet long, thumb-thick</text>
  <text x="180" y="336" font-family="monospace" font-size="9" fill="#000">• Point end in fire to harden</text>
  <text x="180" y="349" font-family="monospace" font-size="9" fill="#000">• Scrape off char, repeat</text>
  
  <rect x="50" y="370" width="330" height="15" fill="#E6E6E6" stroke="#000" stroke-width="1"/>
  <text x="60" y="382" font-family="monospace" font-size="8" font-weight="bold" fill="#000">Uses: Digging roots, making fire pit, loosening soil</text>
  
  <!-- Bone needle -->
  <rect x="410" y="245" width="350" height="150" fill="#FFF" stroke="#000" stroke-width="2"/>
  <text x="420" y="270" font-family="monospace" font-size="14" font-weight="bold" fill="#000">BONE NEEDLE/AWL:</text>
  
  <!-- Needle -->
  <line x1="500" y1="310" x2="500" y2="360" stroke="#000" stroke-width="3"/>
  <circle cx="500" cy="315" r="4" fill="none" stroke="#000" stroke-width="2"/>
  <path d="M 500 360 L 497 368 L 503 368 Z" fill="#000"/>
  
  <text x="540" y="310" font-family="monospace" font-size="9" fill="#000">• Small mammal/bird bone</text>
  <text x="540" y="323" font-family="monospace" font-size="9" fill="#000">• Grind one end to point</text>
  <text x="540" y="336" font-family="monospace" font-size="9" fill="#000">• Drill eye with hot wire/thorn</text>
  <text x="540" y="349" font-family="monospace" font-size="9" fill="#000">• Or make awl (no eye needed)</text>
  
  <rect x="420" y="370" width="330" height="15" fill="#E6E6E6" stroke="#000" stroke-width="1"/>
  <text x="430" y="382" font-family="monospace" font-size="8" font-weight="bold" fill="#000">Uses: Sewing repairs, making cordage, working leather</text>
  
  <!-- Wooden wedges -->
  <rect x="40" y="410" width="350" height="150" fill="#FFF" stroke="#000" stroke-width="2"/>
  <text x="50" y="435" font-family="monospace" font-size="14" font-weight="bold" fill="#000">WOODEN WEDGES:</text>
  
  <!-- Wedge -->
  <path d="M 127 470 L 110 530 L 145 530 Z" fill="url(#horizontal)" stroke="#000" stroke-width="2"/>
  
  <text x="180" y="475" font-family="monospace" font-size="9" fill="#000">• Hardwood (oak, maple, ash)</text>
  <text x="180" y="488" font-family="monospace" font-size="9" fill="#000">• Triangle shape, 6-12 inches</text>
  <text x="180" y="501" font-family="monospace" font-size="9" fill="#000">• Taper to thin edge</text>
  <text x="180" y="514" font-family="monospace" font-size="9" fill="#000">• Make several (they break)</text>
  
  <rect x="50" y="535" width="330" height="15" fill="#E6E6E6" stroke="#000" stroke-width="1"/>
  <text x="60" y="547" font-family="monospace" font-size="8" font-weight="bold" fill="#000">Uses: Splitting logs, making shelters, opening cracks</text>
  
  <!-- Cordage -->
  <rect x="410" y="410" width="350" height="150" fill="#FFF" stroke="#000" stroke-width="2"/>
  <text x="420" y="435" font-family="monospace" font-size="14" font-weight="bold" fill="#000">NATURAL CORDAGE:</text>
  
  <!-- Twisted rope -->
  <path d="M 480 480 Q 490 470, 500 480 Q 510 490, 520 480 Q 530 470, 540 480" 
        stroke="#000" stroke-width="3" fill="none"/>
  
  <text x="560" y="475" font-family="monospace" font-size="9" fill="#000">• Inner bark (cedar, willow)</text>
  <text x="560" y="488" font-family="monospace" font-size="9" fill="#000">• Plant fibers (nettle, yucca)</text>
  <text x="560" y="501" font-family="monospace" font-size="9" fill="#000">• Twist/braid technique</text>
  <text x="560" y="514" font-family="monospace" font-size="9" fill="#000">• Multiple strands = strength</text>
  
  <rect x="420" y="535" width="330" height="15" fill="#E6E6E6" stroke="#000" stroke-width="1"/>
  <text x="430" y="547" font-family="monospace" font-size="8" font-weight="bold" fill="#000">Uses: Lashing, snares, fishing line, bow strings</text>
  
  <!-- Tips -->
  <rect x="40" y="575" width="720" height="155" fill="#E6E6E6" stroke="#000" stroke-width="2"/>
  <text x="50" y="600" font-family="monospace" font-size="14" font-weight="bold" fill="#000">IMPROVISED TOOL TIPS:</text>
  
  <text x="60" y="620" font-family="monospace" font-size="10" fill="#000">Material selection:</text>
  <text x="70" y="635" font-family="monospace" font-size="9" fill="#666">• Green wood easier to shape, dry wood stronger</text>
  <text x="70" y="648" font-family="monospace" font-size="9" fill="#666">• River stones already shaped, smooth (vs sharp quarry rock)</text>
  <text x="70" y="661" font-family="monospace" font-size="9" fill="#666">• Test unfamiliar wood on small project first</text>
  
  <text x="60" y="681" font-family="monospace" font-size="10" fill="#000">Improvement over time:</text>
  <text x="70" y="696" font-family="monospace" font-size="9" fill="#666">• Crude tools make better tools (bootstrap approach)</text>
  <text x="70" y="709" font-family="monospace" font-size="9" fill="#666">• Stone axe → wooden wedges → split planks</text>
  <text x="70" y="722" font-family="monospace" font-size="9" fill="#666">• Improvised tools are temporary - replace when possible</text>
  
</svg>