<?xml version="1.0" encoding="UTF-8"?>
<svg xmlns="http://www.w3.org/2000/svg" viewBox="0 0 700 600" width="700" height="600">

  <defs>
    <!-- Grayscale Patterns -->
    <pattern id="gray-12" patternUnits="userSpaceOnUse" width="8" height="8">
      <rect width="8" height="8" fill="#FFF"/>
      <rect x="0" y="0" width="1" height="1" fill="#000"/>
    </pattern>

    <pattern id="gray-25" patternUnits="userSpaceOnUse" width="4" height="4">
      <rect width="4" height="4" fill="#FFF"/>
      <rect x="0" y="0" width="2" height="2" fill="#000"/>
      <rect x="2" y="2" width="2" height="2" fill="#000"/>
    </pattern>

    <pattern id="gray-37" patternUnits="userSpaceOnUse" width="8" height="8">
      <rect width="8" height="8" fill="#FFF"/>
      <rect x="0" y="0" width="1" height="1" fill="#000"/>
      <rect x="2" y="2" width="1" height="1" fill="#000"/>
      <rect x="4" y="4" width="1" height="1" fill="#000"/>
      <rect x="6" y="6" width="1" height="1" fill="#000"/>
      <rect x="1" y="1" width="1" height="1" fill="#000"/>
      <rect x="3" y="3" width="1" height="1" fill="#000"/>
      <rect x="5" y="5" width="1" height="1" fill="#000"/>
      <rect x="7" y="7" width="1" height="1" fill="#000"/>
    </pattern>

    <pattern id="gray-50" patternUnits="userSpaceOnUse" width="2" height="2">
      <rect width="2" height="2" fill="#FFF"/>
      <rect x="0" y="0" width="1" height="1" fill="#000"/>
      <rect x="1" y="1" width="1" height="1" fill="#000"/>
    </pattern>

    <pattern id="gray-62" patternUnits="userSpaceOnUse" width="8" height="8">
      <rect width="8" height="8" fill="#000"/>
      <rect x="1" y="0" width="1" height="1" fill="#FFF"/>
      <rect x="3" y="2" width="1" height="1" fill="#FFF"/>
      <rect x="5" y="4" width="1" height="1" fill="#FFF"/>
      <rect x="7" y="6" width="1" height="1" fill="#FFF"/>
      <rect x="0" y="1" width="1" height="1" fill="#FFF"/>
      <rect x="2" y="3" width="1" height="1" fill="#FFF"/>
      <rect x="4" y="5" width="1" height="1" fill="#FFF"/>
      <rect x="6" y="7" width="1" height="1" fill="#FFF"/>
    </pattern>

    <pattern id="gray-75" patternUnits="userSpaceOnUse" width="4" height="4">
      <rect width="4" height="4" fill="#000"/>
      <rect x="0" y="0" width="2" height="2" fill="#FFF"/>
      <rect x="2" y="2" width="2" height="2" fill="#FFF"/>
    </pattern>

    <!-- Texture Patterns -->
    <pattern id="brick" patternUnits="userSpaceOnUse" width="8" height="8">
      <rect width="8" height="8" fill="#FFF"/>
      <rect x="0" y="0" width="4" height="1" fill="#000"/>
      <rect x="4" y="1" width="1" height="3" fill="#000"/>
      <rect x="0" y="4" width="4" height="1" fill="#000"/>
      <rect x="0" y="5" width="1" height="3" fill="#000"/>
    </pattern>

    <pattern id="diagonal" patternUnits="userSpaceOnUse" width="8" height="8">
      <rect width="8" height="8" fill="#FFF"/>
      <rect x="0" y="0" width="1" height="1" fill="#000"/>
      <rect x="1" y="1" width="1" height="1" fill="#000"/>
      <rect x="2" y="2" width="1" height="1" fill="#000"/>
      <rect x="3" y="3" width="1" height="1" fill="#000"/>
      <rect x="4" y="4" width="1" height="1" fill="#000"/>
      <rect x="5" y="5" width="1" height="1" fill="#000"/>
      <rect x="6" y="6" width="1" height="1" fill="#000"/>
      <rect x="7" y="7" width="1" height="1" fill="#000"/>
    </pattern>

    <pattern id="cross-hatch" patternUnits="userSpaceOnUse" width="8" height="8">
      <rect width="8" height="8" fill="#FFF"/>
      <rect x="0" y="0" width="1" height="8" fill="#000"/>
      <rect x="0" y="0" width="8" height="1" fill="#000"/>
      <rect x="4" y="0" width="1" height="8" fill="#000"/>
      <rect x="0" y="4" width="8" height="1" fill="#000"/>
    </pattern>

    <pattern id="dots" patternUnits="userSpaceOnUse" width="4" height="4">
      <rect width="4" height="4" fill="#FFF"/>
      <rect x="0" y="0" width="1" height="1" fill="#000"/>
      <rect x="2" y="2" width="1" height="1" fill="#000"/>
    </pattern>

    <pattern id="horizontal" patternUnits="userSpaceOnUse" width="8" height="8">
      <rect width="8" height="8" fill="#FFF"/>
      <rect x="0" y="0" width="8" height="2" fill="#000"/>
      <rect x="0" y="4" width="8" height="2" fill="#000"/>
    </pattern>

    <pattern id="vertical" patternUnits="userSpaceOnUse" width="8" height="8">
      <rect width="8" height="8" fill="#FFF"/>
      <rect x="0" y="0" width="2" height="8" fill="#000"/>
      <rect x="4" y="0" width="2" height="8" fill="#000"/>
    </pattern>

    <pattern id="herringbone" patternUnits="userSpaceOnUse" width="8" height="8">
      <rect width="8" height="8" fill="#FFF"/>
      <rect x="0" y="0" width="1" height="1" fill="#000"/>
      <rect x="1" y="1" width="1" height="1" fill="#000"/>
      <rect x="2" y="2" width="1" height="1" fill="#000"/>
      <rect x="3" y="3" width="1" height="1" fill="#000"/>
      <rect x="7" y="0" width="1" height="1" fill="#000"/>
      <rect x="6" y="1" width="1" height="1" fill="#000"/>
      <rect x="5" y="2" width="1" height="1" fill="#000"/>
      <rect x="4" y="3" width="1" height="1" fill="#000"/>
      <rect x="0" y="7" width="1" height="1" fill="#000"/>
      <rect x="1" y="6" width="1" height="1" fill="#000"/>
      <rect x="2" y="5" width="1" height="1" fill="#000"/>
      <rect x="3" y="4" width="1" height="1" fill="#000"/>
      <rect x="7" y="7" width="1" height="1" fill="#000"/>
      <rect x="6" y="6" width="1" height="1" fill="#000"/>
      <rect x="5" y="5" width="1" height="1" fill="#000"/>
      <rect x="4" y="4" width="1" height="1" fill="#000"/>
    </pattern>
  </defs>

  
  <title>Sharpening with Stones</title>
  <desc>Proper knife and tool sharpening technique</desc>
  
  <text x="350" y="30" font-family="monospace" font-size="20" font-weight="bold" 
        text-anchor="middle" fill="#000">SHARPENING TECHNIQUE</text>
  <text x="350" y="50" font-family="monospace" font-size="11" 
        text-anchor="middle" fill="#666">Using whetstones to maintain sharp edges</text>
  
  <!-- Angle diagram -->
  <rect x="50" y="80" width="600" height="200" fill="#FFF" stroke="#000" stroke-width="2"/>
  <text x="60" y="105" font-family="monospace" font-size="14" font-weight="bold" fill="#000">PROPER ANGLE:</text>
  
  <!-- Stone -->
  <rect x="200" y="180" width="300" height="60" fill="url(#gray-37)" stroke="#000" stroke-width="2"/>
  
  <!-- Knife at angle -->
  <path d="M 250 150 L 450 165 L 445 172 L 245 157 Z" fill="url(#gray-25)" stroke="#000" stroke-width="2"/>
  
  <!-- Angle arc -->
  <path d="M 450 165 Q 470 180, 450 195" stroke="#E00" stroke-width="2" fill="none" stroke-dasharray="3,3"/>
  <text x="475" y="185" font-family="monospace" font-size="12" font-weight="bold" fill="#E00">15-20°</text>
  
  <!-- Guide lines -->
  <line x1="450" y1="165" x2="550" y2="165" stroke="#000" stroke-width="1" stroke-dasharray="2,2"/>
  <line x1="450" y1="165" x2="510" y2="195" stroke="#E00" stroke-width="1" stroke-dasharray="2,2"/>
  
  <text x="60" y="140" font-family="monospace" font-size="9" fill="#000">For most knives: 15-20° angle</text>
  <text x="60" y="153" font-family="monospace" font-size="9" fill="#666">• Lower = sharper but fragile</text>
  <text x="60" y="166" font-family="monospace" font-size="9" fill="#666">• Higher = more durable</text>
  
  <rect x="60" y="255" width="580" height="15" fill="#E6E6E6" stroke="#000" stroke-width="1"/>
  <text x="70" y="267" font-family="monospace" font-size="9" font-weight="bold" fill="#000">Trick: 2 stacked pennies = ~15° with spine on stone</text>
  
  <!-- Process -->
  <rect x="50" y="295" width="600" height="190" fill="#E6E6E6" stroke="#000" stroke-width="2"/>
  <text x="60" y="320" font-family="monospace" font-size="14" font-weight="bold" fill="#000">SHARPENING PROCESS:</text>
  
  <text x="70" y="340" font-family="monospace" font-size="10" fill="#000">1. Stabilize stone (wet towel underneath)</text>
  <text x="70" y="358" font-family="monospace" font-size="10" fill="#000">2. Apply water or honing oil (check stone type)</text>
  <text x="70" y="376" font-family="monospace" font-size="10" fill="#000">3. Hold knife at consistent angle</text>
  <text x="70" y="394" font-family="monospace" font-size="10" fill="#000">4. Push blade AWAY, edge first (like slicing thin layer)</text>
  <text x="70" y="412" font-family="monospace" font-size="10" fill="#000">5. 10-20 strokes per side, alternating</text>
  <text x="70" y="430" font-family="monospace" font-size="10" fill="#000">6. Test sharpness: shave arm hair or slice paper</text>
  
  <rect x="60" y="445" width="580" height="30" fill="#FFF" stroke="#000" stroke-width="1"/>
  <text x="70" y="460" font-family="monospace" font-size="9" font-weight="bold" fill="#000">Direction: Edge FORWARD (into stone), not trailing</text>
  <text x="70" y="472" font-family="monospace" font-size="9" fill="#666">Some prefer alternating, but forward stroke is traditional</text>
  
  <!-- Stone types -->
  <rect x="50" y="500" width="600" height="80" fill="#FFF" stroke="#000" stroke-width="2"/>
  <text x="60" y="525" font-family="monospace" font-size="14" font-weight="bold" fill="#000">STONE TYPES:</text>
  
  <text x="70" y="545" font-family="monospace" font-size="9" fill="#000">Coarse (200-600 grit): Repair chips, reshape bevel</text>
  <text x="70" y="558" font-family="monospace" font-size="9" fill="#000">Medium (800-2000 grit): Regular sharpening, general use</text>
  <text x="70" y="571" font-family="monospace" font-size="9" fill="#000">Fine (3000-8000 grit): Polishing, razor edge (not necessary for survival)</text>
  
</svg>