<?xml version="1.0" encoding="UTF-8"?>
<svg xmlns="http://www.w3.org/2000/svg" viewBox="0 0 700 600" width="700" height="600">

  <defs>
    <!-- Grayscale Patterns -->
    <pattern id="gray-12" patternUnits="userSpaceOnUse" width="8" height="8">
      <rect width="8" height="8" fill="#FFF"/>
      <rect x="0" y="0" width="1" height="1" fill="#000"/>
    </pattern>

    <pattern id="gray-25" patternUnits="userSpaceOnUse" width="4" height="4">
      <rect width="4" height="4" fill="#FFF"/>
      <rect x="0" y="0" width="2" height="2" fill="#000"/>
      <rect x="2" y="2" width="2" height="2" fill="#000"/>
    </pattern>

    <pattern id="gray-37" patternUnits="userSpaceOnUse" width="8" height="8">
      <rect width="8" height="8" fill="#FFF"/>
      <rect x="0" y="0" width="1" height="1" fill="#000"/>
      <rect x="2" y="2" width="1" height="1" fill="#000"/>
      <rect x="4" y="4" width="1" height="1" fill="#000"/>
      <rect x="6" y="6" width="1" height="1" fill="#000"/>
      <rect x="1" y="1" width="1" height="1" fill="#000"/>
      <rect x="3" y="3" width="1" height="1" fill="#000"/>
      <rect x="5" y="5" width="1" height="1" fill="#000"/>
      <rect x="7" y="7" width="1" height="1" fill="#000"/>
    </pattern>

    <pattern id="gray-50" patternUnits="userSpaceOnUse" width="2" height="2">
      <rect width="2" height="2" fill="#FFF"/>
      <rect x="0" y="0" width="1" height="1" fill="#000"/>
      <rect x="1" y="1" width="1" height="1" fill="#000"/>
    </pattern>

    <pattern id="gray-62" patternUnits="userSpaceOnUse" width="8" height="8">
      <rect width="8" height="8" fill="#000"/>
      <rect x="1" y="0" width="1" height="1" fill="#FFF"/>
      <rect x="3" y="2" width="1" height="1" fill="#FFF"/>
      <rect x="5" y="4" width="1" height="1" fill="#FFF"/>
      <rect x="7" y="6" width="1" height="1" fill="#FFF"/>
      <rect x="0" y="1" width="1" height="1" fill="#FFF"/>
      <rect x="2" y="3" width="1" height="1" fill="#FFF"/>
      <rect x="4" y="5" width="1" height="1" fill="#FFF"/>
      <rect x="6" y="7" width="1" height="1" fill="#FFF"/>
    </pattern>

    <pattern id="gray-75" patternUnits="userSpaceOnUse" width="4" height="4">
      <rect width="4" height="4" fill="#000"/>
      <rect x="0" y="0" width="2" height="2" fill="#FFF"/>
      <rect x="2" y="2" width="2" height="2" fill="#FFF"/>
    </pattern>

    <!-- Texture Patterns -->
    <pattern id="brick" patternUnits="userSpaceOnUse" width="8" height="8">
      <rect width="8" height="8" fill="#FFF"/>
      <rect x="0" y="0" width="4" height="1" fill="#000"/>
      <rect x="4" y="1" width="1" height="3" fill="#000"/>
      <rect x="0" y="4" width="4" height="1" fill="#000"/>
      <rect x="0" y="5" width="1" height="3" fill="#000"/>
    </pattern>

    <pattern id="diagonal" patternUnits="userSpaceOnUse" width="8" height="8">
      <rect width="8" height="8" fill="#FFF"/>
      <rect x="0" y="0" width="1" height="1" fill="#000"/>
      <rect x="1" y="1" width="1" height="1" fill="#000"/>
      <rect x="2" y="2" width="1" height="1" fill="#000"/>
      <rect x="3" y="3" width="1" height="1" fill="#000"/>
      <rect x="4" y="4" width="1" height="1" fill="#000"/>
      <rect x="5" y="5" width="1" height="1" fill="#000"/>
      <rect x="6" y="6" width="1" height="1" fill="#000"/>
      <rect x="7" y="7" width="1" height="1" fill="#000"/>
    </pattern>

    <pattern id="cross-hatch" patternUnits="userSpaceOnUse" width="8" height="8">
      <rect width="8" height="8" fill="#FFF"/>
      <rect x="0" y="0" width="1" height="8" fill="#000"/>
      <rect x="0" y="0" width="8" height="1" fill="#000"/>
      <rect x="4" y="0" width="1" height="8" fill="#000"/>
      <rect x="0" y="4" width="8" height="1" fill="#000"/>
    </pattern>

    <pattern id="dots" patternUnits="userSpaceOnUse" width="4" height="4">
      <rect width="4" height="4" fill="#FFF"/>
      <rect x="0" y="0" width="1" height="1" fill="#000"/>
      <rect x="2" y="2" width="1" height="1" fill="#000"/>
    </pattern>

    <pattern id="horizontal" patternUnits="userSpaceOnUse" width="8" height="8">
      <rect width="8" height="8" fill="#FFF"/>
      <rect x="0" y="0" width="8" height="2" fill="#000"/>
      <rect x="0" y="4" width="8" height="2" fill="#000"/>
    </pattern>

    <pattern id="vertical" patternUnits="userSpaceOnUse" width="8" height="8">
      <rect width="8" height="8" fill="#FFF"/>
      <rect x="0" y="0" width="2" height="8" fill="#000"/>
      <rect x="4" y="0" width="2" height="8" fill="#000"/>
    </pattern>

    <pattern id="herringbone" patternUnits="userSpaceOnUse" width="8" height="8">
      <rect width="8" height="8" fill="#FFF"/>
      <rect x="0" y="0" width="1" height="1" fill="#000"/>
      <rect x="1" y="1" width="1" height="1" fill="#000"/>
      <rect x="2" y="2" width="1" height="1" fill="#000"/>
      <rect x="3" y="3" width="1" height="1" fill="#000"/>
      <rect x="7" y="0" width="1" height="1" fill="#000"/>
      <rect x="6" y="1" width="1" height="1" fill="#000"/>
      <rect x="5" y="2" width="1" height="1" fill="#000"/>
      <rect x="4" y="3" width="1" height="1" fill="#000"/>
      <rect x="0" y="7" width="1" height="1" fill="#000"/>
      <rect x="1" y="6" width="1" height="1" fill="#000"/>
      <rect x="2" y="5" width="1" height="1" fill="#000"/>
      <rect x="3" y="4" width="1" height="1" fill="#000"/>
      <rect x="7" y="7" width="1" height="1" fill="#000"/>
      <rect x="6" y="6" width="1" height="1" fill="#000"/>
      <rect x="5" y="5" width="1" height="1" fill="#000"/>
      <rect x="4" y="4" width="1" height="1" fill="#000"/>
    </pattern>
  </defs>

  
  <title>Finding Polaris (North Star)</title>
  <desc>Use Big Dipper to locate Polaris for north direction</desc>
  
  <text x="350" y="30" font-family="monospace" font-size="20" font-weight="bold" 
        text-anchor="middle" fill="#000">FINDING POLARIS (NORTH STAR)</text>
  <text x="350" y="50" font-family="monospace" font-size="11" 
        text-anchor="middle" fill="#666">Northern Hemisphere only</text>
  
  <!-- Night sky background -->
  <rect x="50" y="80" width="600" height="400" fill="#1A1A1A" stroke="#000" stroke-width="2"/>
  
  <!-- Big Dipper -->
  <circle cx="150" cy="300" r="5" fill="#FFF"/>
  <circle cx="200" cy="280" r="5" fill="#FFF"/>
  <circle cx="250" cy="270" r="5" fill="#FFF"/>
  <circle cx="300" cy="260" r="5" fill="#FFF"/>
  <circle cx="280" cy="320" r="5" fill="#FFF"/>
  <circle cx="230" cy="330" r="5" fill="#FFF"/>
  <circle cx="180" cy="340" r="5" fill="#FFF"/>
  
  <line x1="150" y1="300" x2="200" y2="280" stroke="#666" stroke-width="1" stroke-dasharray="2,2"/>
  <line x1="200" y1="280" x2="250" y2="270" stroke="#666" stroke-width="1" stroke-dasharray="2,2"/>
  <line x1="250" y1="270" x2="300" y2="260" stroke="#666" stroke-width="1" stroke-dasharray="2,2"/>
  <line x1="300" y1="260" x2="280" y2="320" stroke="#666" stroke-width="1" stroke-dasharray="2,2"/>
  <line x1="280" y1="320" x2="230" y2="330" stroke="#666" stroke-width="1" stroke-dasharray="2,2"/>
  <line x1="230" y1="330" x2="180" y2="340" stroke="#666" stroke-width="1" stroke-dasharray="2,2"/>
  <line x1="180" y1="340" x2="150" y2="300" stroke="#666" stroke-width="1" stroke-dasharray="2,2"/>
  
  <text x="220" y="370" font-family="monospace" font-size="11" fill="#FFF">BIG DIPPER</text>
  
  <!-- Pointer stars highlighted -->
  <circle cx="300" cy="260" r="8" fill="none" stroke="#FFF" stroke-width="2"/>
  <circle cx="280" cy="320" r="8" fill="none" stroke="#FFF" stroke-width="2"/>
  <text x="320" y="265" font-family="monospace" font-size="9" fill="#FFF">Pointer</text>
  <text x="320" y="325" font-family="monospace" font-size="9" fill="#FFF">Stars</text>
  
  <!-- Arrow to Polaris -->
  <line x1="290" y1="290" x2="480" y2="150" stroke="#FFF" stroke-width="2" stroke-dasharray="5,5" marker-end="url(#arrowhead)"/>
  <defs>
    <marker id="arrowhead" markerWidth="10" markerHeight="10" refX="9" refY="3" orient="auto">
      <polygon points="0 0, 10 3, 0 6" fill="#FFF"/>
    </marker>
  </defs>
  <text x="380" y="215" font-family="monospace" font-size="9" fill="#FFF">5x distance</text>
  <text x="380" y="227" font-family="monospace" font-size="9" fill="#FFF">between pointers</text>
  
  <!-- Polaris -->
  <circle cx="500" cy="140" r="8" fill="#FFF"/>
  <circle cx="500" cy="140" r="12" fill="none" stroke="#FFF" stroke-width="1"/>
  <circle cx="500" cy="140" r="16" fill="none" stroke="#FFF" stroke-width="1"/>
  <text x="520" y="145" font-family="monospace" font-size="12" font-weight="bold" fill="#FFF">POLARIS</text>
  <text x="520" y="158" font-family="monospace" font-size="9" fill="#FFF">(North Star)</text>
  
  <!-- Horizon line -->
  <line x1="50" y1="450" x2="650" y2="450" stroke="#FFF" stroke-width="2"/>
  <text x="60" y="470" font-family="monospace" font-size="9" fill="#000">Horizon</text>
  
  <!-- Instructions -->
  <rect x="50" y="500" width="600" height="85" fill="#E6E6E6" stroke="#000" stroke-width="1"/>
  <text x="60" y="520" font-family="monospace" font-size="10" font-weight="bold" fill="#000">METHOD:</text>
  <text x="70" y="535" font-family="monospace" font-size="9" fill="#000">1. Locate Big Dipper (7 bright stars in cup/handle pattern)</text>
  <text x="70" y="548" font-family="monospace" font-size="9" fill="#000">2. Find 2 pointer stars on front edge of cup</text>
  <text x="70" y="561" font-family="monospace" font-size="9" fill="#000">3. Draw imaginary line through pointers, extend 5x their separation</text>
  <text x="70" y="574" font-family="monospace" font-size="9" fill="#000">4. Polaris = bright star at end of line = TRUE NORTH direction</text>
  
</svg>