<?xml version="1.0" encoding="UTF-8"?>
<svg xmlns="http://www.w3.org/2000/svg" viewBox="0 0 800 900" width="800" height="900">

  <defs>
    <!-- Grayscale Patterns -->
    <pattern id="gray-12" patternUnits="userSpaceOnUse" width="8" height="8">
      <rect width="8" height="8" fill="#FFF"/>
      <rect x="0" y="0" width="1" height="1" fill="#000"/>
    </pattern>

    <pattern id="gray-25" patternUnits="userSpaceOnUse" width="4" height="4">
      <rect width="4" height="4" fill="#FFF"/>
      <rect x="0" y="0" width="2" height="2" fill="#000"/>
      <rect x="2" y="2" width="2" height="2" fill="#000"/>
    </pattern>

    <pattern id="gray-37" patternUnits="userSpaceOnUse" width="8" height="8">
      <rect width="8" height="8" fill="#FFF"/>
      <rect x="0" y="0" width="1" height="1" fill="#000"/>
      <rect x="2" y="2" width="1" height="1" fill="#000"/>
      <rect x="4" y="4" width="1" height="1" fill="#000"/>
      <rect x="6" y="6" width="1" height="1" fill="#000"/>
      <rect x="1" y="1" width="1" height="1" fill="#000"/>
      <rect x="3" y="3" width="1" height="1" fill="#000"/>
      <rect x="5" y="5" width="1" height="1" fill="#000"/>
      <rect x="7" y="7" width="1" height="1" fill="#000"/>
    </pattern>

    <pattern id="gray-50" patternUnits="userSpaceOnUse" width="2" height="2">
      <rect width="2" height="2" fill="#FFF"/>
      <rect x="0" y="0" width="1" height="1" fill="#000"/>
      <rect x="1" y="1" width="1" height="1" fill="#000"/>
    </pattern>

    <pattern id="gray-62" patternUnits="userSpaceOnUse" width="8" height="8">
      <rect width="8" height="8" fill="#000"/>
      <rect x="1" y="0" width="1" height="1" fill="#FFF"/>
      <rect x="3" y="2" width="1" height="1" fill="#FFF"/>
      <rect x="5" y="4" width="1" height="1" fill="#FFF"/>
      <rect x="7" y="6" width="1" height="1" fill="#FFF"/>
      <rect x="0" y="1" width="1" height="1" fill="#FFF"/>
      <rect x="2" y="3" width="1" height="1" fill="#FFF"/>
      <rect x="4" y="5" width="1" height="1" fill="#FFF"/>
      <rect x="6" y="7" width="1" height="1" fill="#FFF"/>
    </pattern>

    <pattern id="gray-75" patternUnits="userSpaceOnUse" width="4" height="4">
      <rect width="4" height="4" fill="#000"/>
      <rect x="0" y="0" width="2" height="2" fill="#FFF"/>
      <rect x="2" y="2" width="2" height="2" fill="#FFF"/>
    </pattern>

    <!-- Texture Patterns -->
    <pattern id="brick" patternUnits="userSpaceOnUse" width="8" height="8">
      <rect width="8" height="8" fill="#FFF"/>
      <rect x="0" y="0" width="4" height="1" fill="#000"/>
      <rect x="4" y="1" width="1" height="3" fill="#000"/>
      <rect x="0" y="4" width="4" height="1" fill="#000"/>
      <rect x="0" y="5" width="1" height="3" fill="#000"/>
    </pattern>

    <pattern id="diagonal" patternUnits="userSpaceOnUse" width="8" height="8">
      <rect width="8" height="8" fill="#FFF"/>
      <rect x="0" y="0" width="1" height="1" fill="#000"/>
      <rect x="1" y="1" width="1" height="1" fill="#000"/>
      <rect x="2" y="2" width="1" height="1" fill="#000"/>
      <rect x="3" y="3" width="1" height="1" fill="#000"/>
      <rect x="4" y="4" width="1" height="1" fill="#000"/>
      <rect x="5" y="5" width="1" height="1" fill="#000"/>
      <rect x="6" y="6" width="1" height="1" fill="#000"/>
      <rect x="7" y="7" width="1" height="1" fill="#000"/>
    </pattern>

    <pattern id="cross-hatch" patternUnits="userSpaceOnUse" width="8" height="8">
      <rect width="8" height="8" fill="#FFF"/>
      <rect x="0" y="0" width="1" height="8" fill="#000"/>
      <rect x="0" y="0" width="8" height="1" fill="#000"/>
      <rect x="4" y="0" width="1" height="8" fill="#000"/>
      <rect x="0" y="4" width="8" height="1" fill="#000"/>
    </pattern>

    <pattern id="dots" patternUnits="userSpaceOnUse" width="4" height="4">
      <rect width="4" height="4" fill="#FFF"/>
      <rect x="0" y="0" width="1" height="1" fill="#000"/>
      <rect x="2" y="2" width="1" height="1" fill="#000"/>
    </pattern>

    <pattern id="horizontal" patternUnits="userSpaceOnUse" width="8" height="8">
      <rect width="8" height="8" fill="#FFF"/>
      <rect x="0" y="0" width="8" height="2" fill="#000"/>
      <rect x="0" y="4" width="8" height="2" fill="#000"/>
    </pattern>

    <pattern id="vertical" patternUnits="userSpaceOnUse" width="8" height="8">
      <rect width="8" height="8" fill="#FFF"/>
      <rect x="0" y="0" width="2" height="8" fill="#000"/>
      <rect x="4" y="0" width="2" height="8" fill="#000"/>
    </pattern>

    <pattern id="herringbone" patternUnits="userSpaceOnUse" width="8" height="8">
      <rect width="8" height="8" fill="#FFF"/>
      <rect x="0" y="0" width="1" height="1" fill="#000"/>
      <rect x="1" y="1" width="1" height="1" fill="#000"/>
      <rect x="2" y="2" width="1" height="1" fill="#000"/>
      <rect x="3" y="3" width="1" height="1" fill="#000"/>
      <rect x="7" y="0" width="1" height="1" fill="#000"/>
      <rect x="6" y="1" width="1" height="1" fill="#000"/>
      <rect x="5" y="2" width="1" height="1" fill="#000"/>
      <rect x="4" y="3" width="1" height="1" fill="#000"/>
      <rect x="0" y="7" width="1" height="1" fill="#000"/>
      <rect x="1" y="6" width="1" height="1" fill="#000"/>
      <rect x="2" y="5" width="1" height="1" fill="#000"/>
      <rect x="3" y="4" width="1" height="1" fill="#000"/>
      <rect x="7" y="7" width="1" height="1" fill="#000"/>
      <rect x="6" y="6" width="1" height="1" fill="#000"/>
      <rect x="5" y="5" width="1" height="1" fill="#000"/>
      <rect x="4" y="4" width="1" height="1" fill="#000"/>
    </pattern>
  </defs>

  
  <title>Ground-to-Air Emergency Signals</title>
  <desc>International symbols for aerial rescue communication</desc>
  
  <text x="400" y="30" font-family="monospace" font-size="20" font-weight="bold" 
        text-anchor="middle" fill="#000">GROUND-TO-AIR EMERGENCY SIGNALS</text>
  <text x="400" y="50" font-family="monospace" font-size="11" 
        text-anchor="middle" fill="#666">International symbols (minimum 6ft / 2m size)</text>
  
  <!-- Signal 1: I (Require medical assistance) -->
  <rect x="50" y="80" width="140" height="100" fill="#E6E6E6" stroke="#000" stroke-width="2"/>
  <rect x="90" y="100" width="60" height="60" fill="#000"/>
  <text x="120" y="195" font-family="monospace" font-size="11" font-weight="bold" 
        text-anchor="middle" fill="#000">I</text>
  <text x="120" y="210" font-family="monospace" font-size="9" 
        text-anchor="middle" fill="#000">Medical help</text>
  
  <!-- Signal 2: II (Need medical supplies) -->
  <rect x="210" y="80" width="140" height="100" fill="#E6E6E6" stroke="#000" stroke-width="2"/>
  <rect x="235" y="100" width="30" height="60" fill="#000"/>
  <rect x="275" y="100" width="30" height="60" fill="#000"/>
  <text x="280" y="195" font-family="monospace" font-size="11" font-weight="bold" 
        text-anchor="middle" fill="#000">II</text>
  <text x="280" y="210" font-family="monospace" font-size="9" 
        text-anchor="middle" fill="#000">Med supplies</text>
  
  <!-- Signal 3: X (Unable to proceed) -->
  <rect x="370" y="80" width="140" height="100" fill="#E6E6E6" stroke="#000" stroke-width="2"/>
  <polygon points="400,110 450,150 400,150 450,110" fill="#000"/>
  <polygon points="400,110 450,150 450,110 400,150" fill="#000"/>
  <text x="440" y="195" font-family="monospace" font-size="11" font-weight="bold" 
        text-anchor="middle" fill="#000">X</text>
  <text x="440" y="210" font-family="monospace" font-size="9" 
        text-anchor="middle" fill="#000">Can't move</text>
  
  <!-- Signal 4: F (Need food/water) -->
  <rect x="530" y="80" width="140" height="100" fill="#E6E6E6" stroke="#000" stroke-width="2"/>
  <rect x="560" y="100" width="50" height="15" fill="#000"/>
  <rect x="560" y="100" width="15" height="60" fill="#000"/>
  <rect x="560" y="125" width="40" height="15" fill="#000"/>
  <text x="600" y="195" font-family="monospace" font-size="11" font-weight="bold" 
        text-anchor="middle" fill="#000">F</text>
  <text x="600" y="210" font-family="monospace" font-size="9" 
        text-anchor="middle" fill="#000">Food/Water</text>
  
  <!-- Signal 5: ↑ (Proceeding this way) -->
  <rect x="50" y="230" width="140" height="100" fill="#E6E6E6" stroke="#000" stroke-width="2"/>
  <polygon points="120,250 90,280 95,280 95,310 145,310 145,280 150,280" fill="#000"/>
  <text x="120" y="345" font-family="monospace" font-size="11" font-weight="bold" 
        text-anchor="middle" fill="#000">↑</text>
  <text x="120" y="360" font-family="monospace" font-size="9" 
        text-anchor="middle" fill="#000">Going this way</text>
  
  <!-- Signal 6: LL (All well) -->
  <rect x="210" y="230" width="140" height="100" fill="#E6E6E6" stroke="#000" stroke-width="2"/>
  <rect x="235" y="250" width="15" height="60" fill="#000"/>
  <rect x="235" y="295" width="30" height="15" fill="#000"/>
  <rect x="275" y="250" width="15" height="60" fill="#000"/>
  <rect x="275" y="295" width="30" height="15" fill="#000"/>
  <text x="280" y="345" font-family="monospace" font-size="11" font-weight="bold" 
        text-anchor="middle" fill="#000">LL</text>
  <text x="280" y="360" font-family="monospace" font-size="9" 
        text-anchor="middle" fill="#000">All well</text>
  
  <!-- Signal 7: Y (Yes/Affirmative) -->
  <rect x="370" y="230" width="140" height="100" fill="#E6E6E6" stroke="#000" stroke-width="2"/>
  <polygon points="410,250 425,275 425,310 430,310 430,275 445,250" fill="#000"/>
  <text x="440" y="345" font-family="monospace" font-size="11" font-weight="bold" 
        text-anchor="middle" fill="#000">Y</text>
  <text x="440" y="360" font-family="monospace" font-size="9" 
        text-anchor="middle" fill="#000">YES</text>
  
  <!-- Signal 8: N (No/Negative) -->
  <rect x="530" y="230" width="140" height="100" fill="#E6E6E6" stroke="#000" stroke-width="2"/>
  <rect x="560" y="250" width="15" height="60" fill="#000"/>
  <rect x="575" y="250" width="15" height="60" fill="#000"/>
  <polygon points="575,250 590,310 595,310 580,250" fill="#000"/>
  <text x="600" y="345" font-family="monospace" font-size="11" font-weight="bold" 
        text-anchor="middle" fill="#000">N</text>
  <text x="600" y="360" font-family="monospace" font-size="9" 
        text-anchor="middle" fill="#000">NO</text>
  
  <!-- Construction guidelines -->
  <rect x="50" y="380" width="700" height="140" fill="#FFF" stroke="#000" stroke-width="2"/>
  <text x="60" y="400" font-family="monospace" font-size="12" font-weight="bold" fill="#000">CONSTRUCTION GUIDELINES:</text>
  
  <text x="70" y="420" font-family="monospace" font-size="10" fill="#000">Size: Minimum 6 feet (2 meters) high</text>
  <text x="70" y="435" font-family="monospace" font-size="10" fill="#000">Contrast: Use materials that contrast with ground (rocks, logs, bright clothing)</text>
  <text x="70" y="450" font-family="monospace" font-size="10" fill="#000">Shadow: Create 3D signals for better visibility (pile rocks/logs)</text>
  <text x="70" y="465" font-family="monospace" font-size="10" fill="#000">Location: Clear, flat area visible from air (hilltop, clearing, beach)</text>
  <text x="70" y="480" font-family="monospace" font-size="10" fill="#000">Anchor: Weight down cloth/materials to prevent wind dispersal</text>
  <text x="70" y="495" font-family="monospace" font-size="10" fill="#000">Maintenance: Check daily, repair as needed</text>
  <text x="70" y="510" font-family="monospace" font-size="10" fill="#000">Multiple: Use 3+ signals for redundancy</text>
  
  <!-- SOS signals -->
  <rect x="50" y="540" width="700" height="120" fill="#1A1A1A" stroke="#000" stroke-width="2"/>
  <text x="60" y="565" font-family="monospace" font-size="12" font-weight="bold" fill="#FFF">UNIVERSAL DISTRESS SIGNALS:</text>
  
  <text x="70" y="585" font-family="monospace" font-size="11" font-weight="bold" fill="#FFF">SOS (··· ─── ···)</text>
  <text x="70" y="600" font-family="monospace" font-size="9" fill="#FFF">   Visual: 3 short fires, 3 long fires, 3 short fires</text>
  <text x="70" y="613" font-family="monospace" font-size="9" fill="#FFF">   Audio: 3 short blasts, 3 long blasts, 3 short blasts (whistle/horn)</text>
  <text x="70" y="626" font-family="monospace" font-size="9" fill="#FFF">   Light: 3 short flashes, 3 long flashes, 3 short flashes</text>
  
  <text x="70" y="645" font-family="monospace" font-size="11" font-weight="bold" fill="#FFF">RULE OF 3:</text>
  <text x="70" y="660" font-family="monospace" font-size="9" fill="#FFF">   Any signal repeated 3 times = distress (fires, shots, whistles, flashes)</text>
  
  <!-- Materials -->
  <rect x="50" y="680" width="700" height="200" fill="#E6E6E6" stroke="#000" stroke-width="2"/>
  <text x="60" y="705" font-family="monospace" font-size="12" font-weight="bold" fill="#000">SIGNAL MATERIALS:</text>
  
  <text x="70" y="725" font-family="monospace" font-size="10" font-weight="bold" fill="#000">Natural:</text>
  <text x="80" y="740" font-family="monospace" font-size="9" fill="#000">• Rocks (light colored on dark ground, dark on light)</text>
  <text x="80" y="753" font-family="monospace" font-size="9" fill="#000">• Logs/branches (arrange in patterns)</text>
  <text x="80" y="766" font-family="monospace" font-size="9" fill="#000">• Sand/dirt (dig trenches, pile mounds)</text>
  <text x="80" y="779" font-family="monospace" font-size="9" fill="#000">• Vegetation (cut/arrange grass, leaves)</text>
  
  <text x="70" y="800" font-family="monospace" font-size="10" font-weight="bold" fill="#000">Man-made:</text>
  <text x="80" y="815" font-family="monospace" font-size="9" fill="#000">• Bright clothing/fabric (orange, red, yellow)</text>
  <text x="80" y="828" font-family="monospace" font-size="9" fill="#000">• Reflective materials (mirrors, foil, metal)</text>
  <text x="80" y="841" font-family="monospace" font-size="9" fill="#000">• Smoke signals (add green leaves to fire for white smoke)</text>
  <text x="80" y="854" font-family="monospace" font-size="9" fill="#000">• Fire (3 in triangle = international distress)</text>
  <text x="80" y="867" font-family="monospace" font-size="9" fill="#000">• Signal mirror (flash aircraft, sweep horizon)</text>
  
</svg>