<?xml version="1.0" encoding="UTF-8"?>
<svg xmlns="http://www.w3.org/2000/svg" viewBox="0 0 800 1000" width="800" height="1000">

  <defs>
    <!-- Grayscale Patterns -->
    <pattern id="gray-12" patternUnits="userSpaceOnUse" width="8" height="8">
      <rect width="8" height="8" fill="#FFF"/>
      <rect x="0" y="0" width="1" height="1" fill="#000"/>
    </pattern>

    <pattern id="gray-25" patternUnits="userSpaceOnUse" width="4" height="4">
      <rect width="4" height="4" fill="#FFF"/>
      <rect x="0" y="0" width="2" height="2" fill="#000"/>
      <rect x="2" y="2" width="2" height="2" fill="#000"/>
    </pattern>

    <pattern id="gray-37" patternUnits="userSpaceOnUse" width="8" height="8">
      <rect width="8" height="8" fill="#FFF"/>
      <rect x="0" y="0" width="1" height="1" fill="#000"/>
      <rect x="2" y="2" width="1" height="1" fill="#000"/>
      <rect x="4" y="4" width="1" height="1" fill="#000"/>
      <rect x="6" y="6" width="1" height="1" fill="#000"/>
      <rect x="1" y="1" width="1" height="1" fill="#000"/>
      <rect x="3" y="3" width="1" height="1" fill="#000"/>
      <rect x="5" y="5" width="1" height="1" fill="#000"/>
      <rect x="7" y="7" width="1" height="1" fill="#000"/>
    </pattern>

    <pattern id="gray-50" patternUnits="userSpaceOnUse" width="2" height="2">
      <rect width="2" height="2" fill="#FFF"/>
      <rect x="0" y="0" width="1" height="1" fill="#000"/>
      <rect x="1" y="1" width="1" height="1" fill="#000"/>
    </pattern>

    <pattern id="gray-62" patternUnits="userSpaceOnUse" width="8" height="8">
      <rect width="8" height="8" fill="#000"/>
      <rect x="1" y="0" width="1" height="1" fill="#FFF"/>
      <rect x="3" y="2" width="1" height="1" fill="#FFF"/>
      <rect x="5" y="4" width="1" height="1" fill="#FFF"/>
      <rect x="7" y="6" width="1" height="1" fill="#FFF"/>
      <rect x="0" y="1" width="1" height="1" fill="#FFF"/>
      <rect x="2" y="3" width="1" height="1" fill="#FFF"/>
      <rect x="4" y="5" width="1" height="1" fill="#FFF"/>
      <rect x="6" y="7" width="1" height="1" fill="#FFF"/>
    </pattern>

    <pattern id="gray-75" patternUnits="userSpaceOnUse" width="4" height="4">
      <rect width="4" height="4" fill="#000"/>
      <rect x="0" y="0" width="2" height="2" fill="#FFF"/>
      <rect x="2" y="2" width="2" height="2" fill="#FFF"/>
    </pattern>

    <!-- Texture Patterns -->
    <pattern id="brick" patternUnits="userSpaceOnUse" width="8" height="8">
      <rect width="8" height="8" fill="#FFF"/>
      <rect x="0" y="0" width="4" height="1" fill="#000"/>
      <rect x="4" y="1" width="1" height="3" fill="#000"/>
      <rect x="0" y="4" width="4" height="1" fill="#000"/>
      <rect x="0" y="5" width="1" height="3" fill="#000"/>
    </pattern>

    <pattern id="diagonal" patternUnits="userSpaceOnUse" width="8" height="8">
      <rect width="8" height="8" fill="#FFF"/>
      <rect x="0" y="0" width="1" height="1" fill="#000"/>
      <rect x="1" y="1" width="1" height="1" fill="#000"/>
      <rect x="2" y="2" width="1" height="1" fill="#000"/>
      <rect x="3" y="3" width="1" height="1" fill="#000"/>
      <rect x="4" y="4" width="1" height="1" fill="#000"/>
      <rect x="5" y="5" width="1" height="1" fill="#000"/>
      <rect x="6" y="6" width="1" height="1" fill="#000"/>
      <rect x="7" y="7" width="1" height="1" fill="#000"/>
    </pattern>

    <pattern id="cross-hatch" patternUnits="userSpaceOnUse" width="8" height="8">
      <rect width="8" height="8" fill="#FFF"/>
      <rect x="0" y="0" width="1" height="8" fill="#000"/>
      <rect x="0" y="0" width="8" height="1" fill="#000"/>
      <rect x="4" y="0" width="1" height="8" fill="#000"/>
      <rect x="0" y="4" width="8" height="1" fill="#000"/>
    </pattern>

    <pattern id="dots" patternUnits="userSpaceOnUse" width="4" height="4">
      <rect width="4" height="4" fill="#FFF"/>
      <rect x="0" y="0" width="1" height="1" fill="#000"/>
      <rect x="2" y="2" width="1" height="1" fill="#000"/>
    </pattern>

    <pattern id="horizontal" patternUnits="userSpaceOnUse" width="8" height="8">
      <rect width="8" height="8" fill="#FFF"/>
      <rect x="0" y="0" width="8" height="2" fill="#000"/>
      <rect x="0" y="4" width="8" height="2" fill="#000"/>
    </pattern>

    <pattern id="vertical" patternUnits="userSpaceOnUse" width="8" height="8">
      <rect width="8" height="8" fill="#FFF"/>
      <rect x="0" y="0" width="2" height="8" fill="#000"/>
      <rect x="4" y="0" width="2" height="8" fill="#000"/>
    </pattern>

    <pattern id="herringbone" patternUnits="userSpaceOnUse" width="8" height="8">
      <rect width="8" height="8" fill="#FFF"/>
      <rect x="0" y="0" width="1" height="1" fill="#000"/>
      <rect x="1" y="1" width="1" height="1" fill="#000"/>
      <rect x="2" y="2" width="1" height="1" fill="#000"/>
      <rect x="3" y="3" width="1" height="1" fill="#000"/>
      <rect x="7" y="0" width="1" height="1" fill="#000"/>
      <rect x="6" y="1" width="1" height="1" fill="#000"/>
      <rect x="5" y="2" width="1" height="1" fill="#000"/>
      <rect x="4" y="3" width="1" height="1" fill="#000"/>
      <rect x="0" y="7" width="1" height="1" fill="#000"/>
      <rect x="1" y="6" width="1" height="1" fill="#000"/>
      <rect x="2" y="5" width="1" height="1" fill="#000"/>
      <rect x="3" y="4" width="1" height="1" fill="#000"/>
      <rect x="7" y="7" width="1" height="1" fill="#000"/>
      <rect x="6" y="6" width="1" height="1" fill="#000"/>
      <rect x="5" y="5" width="1" height="1" fill="#000"/>
      <rect x="4" y="4" width="1" height="1" fill="#000"/>
    </pattern>
  </defs>

  
  <title>NATO Phonetic Alphabet</title>
  <desc>International radiotelephony spelling alphabet</desc>
  
  <text x="400" y="30" font-family="monospace" font-size="20" font-weight="bold" 
        text-anchor="middle" fill="#000">NATO PHONETIC ALPHABET</text>
  <text x="400" y="50" font-family="monospace" font-size="11" 
        text-anchor="middle" fill="#666">International radiotelephony standard</text>
  
  <!-- Alphabet grid -->
  <rect x="50" y="70" width="700" height="680" fill="#FFF" stroke="#000" stroke-width="2"/>
  
  <text x="60" y="95" font-family="monospace" font-size="11" font-weight="bold" fill="#000">LETTER  CODE WORD     PRONUNCIATION</text>
  <line x1="60" y1="100" x2="740" y2="100" stroke="#000" stroke-width="1"/>
  
  <!-- Column 1 (A-M) -->
  <text x="70" y="125" font-family="monospace" font-size="10" fill="#000">A       Alpha         AL-fah</text>
  <text x="70" y="145" font-family="monospace" font-size="10" fill="#000">B       Bravo         BRAH-voh</text>
  <text x="70" y="165" font-family="monospace" font-size="10" fill="#000">C       Charlie       CHAR-lee</text>
  <text x="70" y="185" font-family="monospace" font-size="10" fill="#000">D       Delta         DELL-tah</text>
  <text x="70" y="205" font-family="monospace" font-size="10" fill="#000">E       Echo          ECK-oh</text>
  <text x="70" y="225" font-family="monospace" font-size="10" fill="#000">F       Foxtrot       FOKS-trot</text>
  <text x="70" y="245" font-family="monospace" font-size="10" fill="#000">G       Golf          GOLF</text>
  <text x="70" y="265" font-family="monospace" font-size="10" fill="#000">H       Hotel         hoh-TEL</text>
  <text x="70" y="285" font-family="monospace" font-size="10" fill="#000">I       India         IN-dee-ah</text>
  <text x="70" y="305" font-family="monospace" font-size="10" fill="#000">J       Juliett       JEW-lee-ett</text>
  <text x="70" y="325" font-family="monospace" font-size="10" fill="#000">K       Kilo          KEY-loh</text>
  <text x="70" y="345" font-family="monospace" font-size="10" fill="#000">L       Lima          LEE-mah</text>
  <text x="70" y="365" font-family="monospace" font-size="10" fill="#000">M       Mike          MIKE</text>
  
  <!-- Column 2 (N-Z) -->
  <text x="420" y="125" font-family="monospace" font-size="10" fill="#000">N       November      no-VEM-ber</text>
  <text x="420" y="145" font-family="monospace" font-size="10" fill="#000">O       Oscar         OSS-car</text>
  <text x="420" y="165" font-family="monospace" font-size="10" fill="#000">P       Papa          pah-PAH</text>
  <text x="420" y="185" font-family="monospace" font-size="10" fill="#000">Q       Quebec        keh-BECK</text>
  <text x="420" y="205" font-family="monospace" font-size="10" fill="#000">R       Romeo         ROW-me-oh</text>
  <text x="420" y="225" font-family="monospace" font-size="10" fill="#000">S       Sierra        see-AIR-rah</text>
  <text x="420" y="245" font-family="monospace" font-size="10" fill="#000">T       Tango         TANG-go</text>
  <text x="420" y="265" font-family="monospace" font-size="10" fill="#000">U       Uniform       YOU-nee-form</text>
  <text x="420" y="285" font-family="monospace" font-size="10" fill="#000">V       Victor        VIK-tor</text>
  <text x="420" y="305" font-family="monospace" font-size="10" fill="#000">W       Whiskey       WISS-key</text>
  <text x="420" y="325" font-family="monospace" font-size="10" fill="#000">X       X-ray         ECKS-ray</text>
  <text x="420" y="345" font-family="monospace" font-size="10" fill="#000">Y       Yankee        YANG-key</text>
  <text x="420" y="365" font-family="monospace" font-size="10" fill="#000">Z       Zulu          ZOO-loo</text>
  
  <!-- Numbers -->
  <line x1="60" y1="380" x2="740" y2="380" stroke="#000" stroke-width="1"/>
  <text x="60" y="405" font-family="monospace" font-size="11" font-weight="bold" fill="#000">NUMBER  CODE WORD     PRONUNCIATION</text>
  <line x1="60" y1="410" x2="740" y2="410" stroke="#000" stroke-width="1"/>
  
  <text x="70" y="435" font-family="monospace" font-size="10" fill="#000">0       Zero          ZEE-ro</text>
  <text x="70" y="455" font-family="monospace" font-size="10" fill="#000">1       One           WUN</text>
  <text x="70" y="475" font-family="monospace" font-size="10" fill="#000">2       Two           TOO</text>
  <text x="70" y="495" font-family="monospace" font-size="10" fill="#000">3       Three         TREE</text>
  <text x="70" y="515" font-family="monospace" font-size="10" fill="#000">4       Four          FOW-er</text>
  
  <text x="420" y="435" font-family="monospace" font-size="10" fill="#000">5       Five          FIFE</text>
  <text x="420" y="455" font-family="monospace" font-size="10" fill="#000">6       Six           SIX</text>
  <text x="420" y="475" font-family="monospace" font-size="10" fill="#000">7       Seven         SEV-en</text>
  <text x="420" y="495" font-family="monospace" font-size="10" fill="#000">8       Eight         AIT</text>
  <text x="420" y="515" font-family="monospace" font-size="10" fill="#000">9       Nine          NIN-er</text>
  
  <!-- Common codes -->
  <line x1="60" y1="530" x2="740" y2="530" stroke="#000" stroke-width="1"/>
  <text x="60" y="555" font-family="monospace" font-size="11" font-weight="bold" fill="#000">COMMON RADIO CODES:</text>
  
  <text x="70" y="580" font-family="monospace" font-size="10" fill="#000">Roger           Message received/understood</text>
  <text x="70" y="600" font-family="monospace" font-size="10" fill="#000">Wilco           Will comply (follow instructions)</text>
  <text x="70" y="620" font-family="monospace" font-size="10" fill="#000">Affirmative     Yes</text>
  <text x="70" y="640" font-family="monospace" font-size="10" fill="#000">Negative        No</text>
  <text x="70" y="660" font-family="monospace" font-size="10" fill="#000">Over            Transmission complete, awaiting reply</text>
  <text x="70" y="680" font-family="monospace" font-size="10" fill="#000">Out             Conversation complete, no reply expected</text>
  <text x="70" y="700" font-family="monospace" font-size="10" fill="#000">Mayday          Emergency distress call (repeat 3x)</text>
  <text x="70" y="720" font-family="monospace" font-size="10" fill="#000">Pan-Pan         Urgent but not distress (repeat 3x)</text>
  
  <!-- Usage example -->
  <rect x="50" y="770" width="700" height="220" fill="#E6E6E6" stroke="#000" stroke-width="1"/>
  <text x="60" y="795" font-family="monospace" font-size="11" font-weight="bold" fill="#000">USAGE EXAMPLE:</text>
  
  <text x="70" y="820" font-family="monospace" font-size="10" fill="#000">Spelling "SOS" over radio:</text>
  <text x="80" y="840" font-family="monospace" font-size="10" font-weight="bold" fill="#E00">"Sierra Oscar Sierra"</text>
  
  <text x="70" y="870" font-family="monospace" font-size="10" fill="#000">Callsign "N5ABC" over radio:</text>
  <text x="80" y="890" font-family="monospace" font-size="10" font-weight="bold" fill="#000">"November Five Alpha Bravo Charlie"</text>
  
  <text x="70" y="920" font-family="monospace" font-size="10" fill="#000">Coordinates "42.3N 71.1W":</text>
  <text x="80" y="940" font-family="monospace" font-size="10" font-weight="bold" fill="#000">"Four Two Point Tree North, Seven One Point One West"</text>
  
  <text x="70" y="970" font-family="monospace" font-size="9" fill="#666">✓ Speak clearly and slowly  •  Use standard pronunciation  •  Spell critical information</text>
  
</svg>