<?xml version="1.0" encoding="UTF-8"?>
<svg xmlns="http://www.w3.org/2000/svg" viewBox="0 0 700 600" width="700" height="600">

  <defs>
    <!-- Grayscale Patterns -->
    <pattern id="gray-12" patternUnits="userSpaceOnUse" width="8" height="8">
      <rect width="8" height="8" fill="#FFF"/>
      <rect x="0" y="0" width="1" height="1" fill="#000"/>
    </pattern>

    <pattern id="gray-25" patternUnits="userSpaceOnUse" width="4" height="4">
      <rect width="4" height="4" fill="#FFF"/>
      <rect x="0" y="0" width="2" height="2" fill="#000"/>
      <rect x="2" y="2" width="2" height="2" fill="#000"/>
    </pattern>

    <pattern id="gray-37" patternUnits="userSpaceOnUse" width="8" height="8">
      <rect width="8" height="8" fill="#FFF"/>
      <rect x="0" y="0" width="1" height="1" fill="#000"/>
      <rect x="2" y="2" width="1" height="1" fill="#000"/>
      <rect x="4" y="4" width="1" height="1" fill="#000"/>
      <rect x="6" y="6" width="1" height="1" fill="#000"/>
      <rect x="1" y="1" width="1" height="1" fill="#000"/>
      <rect x="3" y="3" width="1" height="1" fill="#000"/>
      <rect x="5" y="5" width="1" height="1" fill="#000"/>
      <rect x="7" y="7" width="1" height="1" fill="#000"/>
    </pattern>

    <pattern id="gray-50" patternUnits="userSpaceOnUse" width="2" height="2">
      <rect width="2" height="2" fill="#FFF"/>
      <rect x="0" y="0" width="1" height="1" fill="#000"/>
      <rect x="1" y="1" width="1" height="1" fill="#000"/>
    </pattern>

    <pattern id="gray-62" patternUnits="userSpaceOnUse" width="8" height="8">
      <rect width="8" height="8" fill="#000"/>
      <rect x="1" y="0" width="1" height="1" fill="#FFF"/>
      <rect x="3" y="2" width="1" height="1" fill="#FFF"/>
      <rect x="5" y="4" width="1" height="1" fill="#FFF"/>
      <rect x="7" y="6" width="1" height="1" fill="#FFF"/>
      <rect x="0" y="1" width="1" height="1" fill="#FFF"/>
      <rect x="2" y="3" width="1" height="1" fill="#FFF"/>
      <rect x="4" y="5" width="1" height="1" fill="#FFF"/>
      <rect x="6" y="7" width="1" height="1" fill="#FFF"/>
    </pattern>

    <pattern id="gray-75" patternUnits="userSpaceOnUse" width="4" height="4">
      <rect width="4" height="4" fill="#000"/>
      <rect x="0" y="0" width="2" height="2" fill="#FFF"/>
      <rect x="2" y="2" width="2" height="2" fill="#FFF"/>
    </pattern>

    <!-- Texture Patterns -->
    <pattern id="brick" patternUnits="userSpaceOnUse" width="8" height="8">
      <rect width="8" height="8" fill="#FFF"/>
      <rect x="0" y="0" width="4" height="1" fill="#000"/>
      <rect x="4" y="1" width="1" height="3" fill="#000"/>
      <rect x="0" y="4" width="4" height="1" fill="#000"/>
      <rect x="0" y="5" width="1" height="3" fill="#000"/>
    </pattern>

    <pattern id="diagonal" patternUnits="userSpaceOnUse" width="8" height="8">
      <rect width="8" height="8" fill="#FFF"/>
      <rect x="0" y="0" width="1" height="1" fill="#000"/>
      <rect x="1" y="1" width="1" height="1" fill="#000"/>
      <rect x="2" y="2" width="1" height="1" fill="#000"/>
      <rect x="3" y="3" width="1" height="1" fill="#000"/>
      <rect x="4" y="4" width="1" height="1" fill="#000"/>
      <rect x="5" y="5" width="1" height="1" fill="#000"/>
      <rect x="6" y="6" width="1" height="1" fill="#000"/>
      <rect x="7" y="7" width="1" height="1" fill="#000"/>
    </pattern>

    <pattern id="cross-hatch" patternUnits="userSpaceOnUse" width="8" height="8">
      <rect width="8" height="8" fill="#FFF"/>
      <rect x="0" y="0" width="1" height="8" fill="#000"/>
      <rect x="0" y="0" width="8" height="1" fill="#000"/>
      <rect x="4" y="0" width="1" height="8" fill="#000"/>
      <rect x="0" y="4" width="8" height="1" fill="#000"/>
    </pattern>

    <pattern id="dots" patternUnits="userSpaceOnUse" width="4" height="4">
      <rect width="4" height="4" fill="#FFF"/>
      <rect x="0" y="0" width="1" height="1" fill="#000"/>
      <rect x="2" y="2" width="1" height="1" fill="#000"/>
    </pattern>

    <pattern id="horizontal" patternUnits="userSpaceOnUse" width="8" height="8">
      <rect width="8" height="8" fill="#FFF"/>
      <rect x="0" y="0" width="8" height="2" fill="#000"/>
      <rect x="0" y="4" width="8" height="2" fill="#000"/>
    </pattern>

    <pattern id="vertical" patternUnits="userSpaceOnUse" width="8" height="8">
      <rect width="8" height="8" fill="#FFF"/>
      <rect x="0" y="0" width="2" height="8" fill="#000"/>
      <rect x="4" y="0" width="2" height="8" fill="#000"/>
    </pattern>

    <pattern id="herringbone" patternUnits="userSpaceOnUse" width="8" height="8">
      <rect width="8" height="8" fill="#FFF"/>
      <rect x="0" y="0" width="1" height="1" fill="#000"/>
      <rect x="1" y="1" width="1" height="1" fill="#000"/>
      <rect x="2" y="2" width="1" height="1" fill="#000"/>
      <rect x="3" y="3" width="1" height="1" fill="#000"/>
      <rect x="7" y="0" width="1" height="1" fill="#000"/>
      <rect x="6" y="1" width="1" height="1" fill="#000"/>
      <rect x="5" y="2" width="1" height="1" fill="#000"/>
      <rect x="4" y="3" width="1" height="1" fill="#000"/>
      <rect x="0" y="7" width="1" height="1" fill="#000"/>
      <rect x="1" y="6" width="1" height="1" fill="#000"/>
      <rect x="2" y="5" width="1" height="1" fill="#000"/>
      <rect x="3" y="4" width="1" height="1" fill="#000"/>
      <rect x="7" y="7" width="1" height="1" fill="#000"/>
      <rect x="6" y="6" width="1" height="1" fill="#000"/>
      <rect x="5" y="5" width="1" height="1" fill="#000"/>
      <rect x="4" y="4" width="1" height="1" fill="#000"/>
    </pattern>
  </defs>

  
  <title>Whistle Signal Codes</title>
  <desc>Emergency whistle communication patterns</desc>
  
  <text x="350" y="30" font-family="monospace" font-size="20" font-weight="bold" 
        text-anchor="middle" fill="#000">WHISTLE SIGNAL CODES</text>
  <text x="350" y="50" font-family="monospace" font-size="11" 
        text-anchor="middle" fill="#666">Standard hiking and emergency signals</text>
  
  <!-- Signal patterns -->
  <rect x="50" y="80" width="600" height="420" fill="#FFF" stroke="#000" stroke-width="2"/>
  
  <!-- 1 blast -->
  <circle cx="100" cy="130" r="20" fill="#000"/>
  <text x="200" y="135" font-family="monospace" font-size="12" font-weight="bold" fill="#000">1 BLAST = "Where are you?"</text>
  <text x="200" y="150" font-family="monospace" font-size="9" fill="#666">Checking location, requesting response</text>
  
  <!-- 2 blasts -->
  <circle cx="80" cy="200" r="20" fill="#000"/>
  <circle cx="120" cy="200" r="20" fill="#000"/>
  <text x="200" y="205" font-family="monospace" font-size="12" font-weight="bold" fill="#000">2 BLASTS = "Come to me"</text>
  <text x="200" y="220" font-family="monospace" font-size="9" fill="#666">Requesting assistance or rendezvous</text>
  
  <!-- 3 blasts -->
  <circle cx="70" cy="270" r="20" fill="#000"/>
  <circle cx="110" cy="270" r="20" fill="#000"/>
  <circle cx="150" cy="270" r="20" fill="#000"/>
  <text x="200" y="275" font-family="monospace" font-size="12" font-weight="bold" fill="#000">3 BLASTS = EMERGENCY / SOS</text>
  <text x="200" y="290" font-family="monospace" font-size="9" fill="#E00">URGENT: Injury, lost, immediate danger</text>
  
  <!-- 4 blasts -->
  <circle cx="60" cy="340" r="20" fill="#000"/>
  <circle cx="100" cy="340" r="20" fill="#000"/>
  <circle cx="140" cy="340" r="20" fill="#000"/>
  <circle cx="180" cy="340" r="20" fill="#000"/>
  <text x="220" y="345" font-family="monospace" font-size="12" font-weight="bold" fill="#000">4 BLASTS = "Acknowledged" / "I hear you"</text>
  <text x="220" y="360" font-family="monospace" font-size="9" fill="#666">Confirmation of received signal</text>
  
  <!-- Response pattern -->
  <line x1="60" y1="390" x2="640" y2="390" stroke="#000" stroke-width="1"/>
  
  <text x="60" y="415" font-family="monospace" font-size="11" font-weight="bold" fill="#000">RESPONSE PROTOCOL:</text>
  <text x="70" y="435" font-family="monospace" font-size="9" fill="#000">1. Hear signal → Wait 1 minute → Respond with same pattern</text>
  <text x="70" y="450" font-family="monospace" font-size="9" fill="#000">2. Emergency (3 blasts) → Respond immediately with 4 blasts</text>
  <text x="70" y="465" font-family="monospace" font-size="9" fill="#000">3. Lost/searching → Alternate 1 blast every 2-3 minutes</text>
  <text x="70" y="480" font-family="monospace" font-size="9" fill="#000">4. Moving → Signal direction with verbal call + 2 blasts</text>
  
  <!-- Best practices -->
  <rect x="50" y="520" width="600" height="70" fill="#E6E6E6" stroke="#000" stroke-width="1"/>
  <text x="60" y="540" font-family="monospace" font-size="10" font-weight="bold" fill="#000">BEST PRACTICES:</text>
  <text x="70" y="555" font-family="monospace" font-size="9" fill="#000">• Carry whistle on person (not in pack) - attached to jacket/shirt</text>
  <text x="70" y="568" font-family="monospace" font-size="9" fill="#000">• Short, sharp blasts (1 second each) with clear pauses (2-3 seconds)</text>
  <text x="70" y="581" font-family="monospace" font-size="9" fill="#000">• Conserve energy - whistle carries farther than shouting (1+ mile)</text>
  
</svg>